M48
;Layer_Color=9474304
;FILE_FORMAT=2:5
INCH,LZ
;TYPE=PLATED
T1F00S00C0.01181
T2F00S00C0.04724
%
T01
X0054151Y0050147
Y0059989
X0071635Y0068029
X0080258Y0074896
X0083998
X0088064Y0076181
X0091214
X0094363Y0084055
X007833Y0083175
X0081517Y0103487
X0079528Y0109843
X0091435Y0117931
X0095569
X0097638Y0103543
X0104724Y0105905
X0108235Y0105647
X0106299Y0108661
X0103937Y01
X012126Y010748
Y0111417
X0116929Y0115945
X0128345Y0115356
X0132325Y0103541
X0132283Y01
X0130905Y0094488
X0134843Y0093504
Y0089567
X0141651Y0088139
Y0091879
X0141749Y0076249
X0131528Y0078382
X0129921Y0082284
X0131448Y0084704
X0113976Y0085039
X0105118Y0069181
X0105068Y0053133
X0096455Y0042518
X0077903Y0040534
X0087383Y006734
X0149606Y0054134
X0145669Y0045276
X0140157Y0032677
X0153543Y0014961
Y0011811
Y0008661
X0107283Y0132283
X0107283Y0151143
X0156693Y002126
Y001811
Y0014961
Y0011811
Y0008661
X018189Y000748
Y001063
Y001378
Y0016929
Y0020079
Y0023228
Y0026378
Y0029528
Y0032677
Y0035827
Y0038976
Y0042126
T02
X0012402Y0010827
Y0020669
Y0030512
Y0040354
Y0050197
Y0060039
Y0069882
Y0079724
X0032087
Y0069882
Y0060039
Y0050197
Y0040354
Y0030512
Y0020669
Y0010827
M30
