G04*
G04 #@! TF.GenerationSoftware,Altium Limited,Altium Designer,22.2.1 (43)*
G04*
G04 Layer_Color=32896*
%FSLAX25Y25*%
%MOIN*%
G70*
G04*
G04 #@! TF.SameCoordinates,3029BB1D-473D-40E9-9363-344448016E8A*
G04*
G04*
G04 #@! TF.FilePolarity,Positive*
G04*
G01*
G75*
%ADD54C,0.00500*%
G36*
X56359Y3543D02*
X42460D01*
Y9449D01*
X56359D01*
Y3543D01*
D02*
G37*
G36*
Y72441D02*
X42460D01*
Y78347D01*
X56359D01*
Y72441D01*
D02*
G37*
G36*
Y62598D02*
X42460D01*
Y68504D01*
X56359D01*
Y62598D01*
D02*
G37*
G36*
Y23228D02*
X42460D01*
Y29134D01*
X56359D01*
Y23228D01*
D02*
G37*
G36*
Y33071D02*
X42460D01*
Y38976D01*
X56359D01*
Y33071D01*
D02*
G37*
G36*
Y52756D02*
X42460D01*
Y58661D01*
X56359D01*
Y52756D01*
D02*
G37*
G36*
Y42913D02*
X42460D01*
Y48819D01*
X56359D01*
Y42913D01*
D02*
G37*
G36*
Y13386D02*
X42460D01*
Y19291D01*
X56359D01*
Y13386D01*
D02*
G37*
G36*
X37595Y87714D02*
X37618Y87665D01*
X37674Y87573D01*
X37733Y87492D01*
X37796Y87419D01*
X37825Y87387D01*
X37851Y87360D01*
X37874Y87334D01*
X37897Y87314D01*
X37914Y87298D01*
X37927Y87288D01*
X37937Y87282D01*
X37940Y87278D01*
X38038Y87206D01*
X38130Y87147D01*
X38212Y87098D01*
X38284Y87062D01*
X38317Y87045D01*
X38347Y87032D01*
X38370Y87022D01*
X38393Y87013D01*
X38409Y87006D01*
X38422Y87003D01*
X38429Y86999D01*
X38432D01*
Y86471D01*
X38353Y86501D01*
X38278Y86530D01*
X38202Y86563D01*
X38133Y86599D01*
X38068Y86635D01*
X38006Y86672D01*
X37950Y86708D01*
X37897Y86744D01*
X37848Y86776D01*
X37809Y86809D01*
X37769Y86839D01*
X37740Y86862D01*
X37717Y86881D01*
X37697Y86898D01*
X37687Y86908D01*
X37684Y86911D01*
Y84730D01*
X37104D01*
Y87767D01*
X37576D01*
X37595Y87714D01*
D02*
G37*
G36*
X39718Y85796D02*
Y85730D01*
X39721Y85671D01*
X39724Y85615D01*
X39731Y85566D01*
X39737Y85520D01*
X39744Y85481D01*
X39754Y85445D01*
X39760Y85415D01*
X39767Y85389D01*
X39777Y85366D01*
X39783Y85350D01*
X39790Y85333D01*
X39796Y85323D01*
X39800Y85317D01*
X39803Y85310D01*
X39839Y85271D01*
X39885Y85245D01*
X39931Y85225D01*
X39980Y85209D01*
X40023Y85202D01*
X40059Y85199D01*
X40072Y85195D01*
X40092D01*
X40128Y85199D01*
X40164Y85202D01*
X40223Y85222D01*
X40275Y85248D01*
X40318Y85277D01*
X40351Y85307D01*
X40374Y85330D01*
X40390Y85350D01*
X40393Y85353D01*
Y85356D01*
X40407Y85379D01*
X40416Y85402D01*
X40433Y85461D01*
X40446Y85520D01*
X40456Y85583D01*
X40462Y85638D01*
X40466Y85661D01*
Y85684D01*
X40469Y85701D01*
Y85717D01*
Y85724D01*
Y85727D01*
X41046Y85661D01*
X41043Y85573D01*
X41036Y85491D01*
X41023Y85412D01*
X41007Y85340D01*
X40990Y85274D01*
X40971Y85215D01*
X40948Y85159D01*
X40925Y85110D01*
X40902Y85068D01*
X40879Y85028D01*
X40859Y84995D01*
X40843Y84969D01*
X40826Y84949D01*
X40813Y84936D01*
X40807Y84926D01*
X40803Y84923D01*
X40754Y84881D01*
X40705Y84841D01*
X40649Y84808D01*
X40593Y84779D01*
X40534Y84756D01*
X40479Y84736D01*
X40423Y84720D01*
X40367Y84707D01*
X40315Y84694D01*
X40269Y84687D01*
X40226Y84680D01*
X40187Y84677D01*
X40157D01*
X40134Y84674D01*
X40115D01*
X40046Y84677D01*
X39977Y84680D01*
X39915Y84687D01*
X39855Y84700D01*
X39803Y84710D01*
X39750Y84723D01*
X39705Y84740D01*
X39662Y84753D01*
X39626Y84769D01*
X39593Y84782D01*
X39564Y84795D01*
X39541Y84808D01*
X39521Y84818D01*
X39508Y84825D01*
X39501Y84828D01*
X39498Y84831D01*
X39455Y84864D01*
X39416Y84897D01*
X39350Y84966D01*
X39295Y85038D01*
X39249Y85104D01*
X39216Y85166D01*
X39203Y85192D01*
X39193Y85215D01*
X39186Y85232D01*
X39180Y85245D01*
X39176Y85255D01*
Y85258D01*
X39163Y85297D01*
X39154Y85340D01*
X39137Y85435D01*
X39124Y85530D01*
X39117Y85622D01*
X39114Y85664D01*
X39111Y85707D01*
Y85743D01*
X39108Y85773D01*
Y85799D01*
Y85819D01*
Y85832D01*
Y85835D01*
Y87757D01*
X39718D01*
Y85796D01*
D02*
G37*
%LPC*%
G36*
X54934Y8418D02*
X54098D01*
X53124Y5577D01*
X52184Y8418D01*
X51360D01*
X52733Y4578D01*
X53565D01*
X54934Y8418D01*
D02*
G37*
G36*
X49310Y8480D02*
X49276D01*
X49243Y8476D01*
X49193Y8472D01*
X49135Y8468D01*
X49064Y8460D01*
X48985Y8447D01*
X48902Y8426D01*
X48815Y8405D01*
X48723Y8376D01*
X48627Y8343D01*
X48532Y8302D01*
X48436Y8256D01*
X48340Y8197D01*
X48253Y8135D01*
X48166Y8060D01*
X48162Y8056D01*
X48153Y8048D01*
X48141Y8035D01*
X48124Y8015D01*
X48099Y7989D01*
X48074Y7960D01*
X48049Y7923D01*
X48016Y7881D01*
X47987Y7831D01*
X47953Y7782D01*
X47920Y7723D01*
X47887Y7661D01*
X47858Y7590D01*
X47824Y7519D01*
X47795Y7440D01*
X47770Y7357D01*
X48536Y7174D01*
Y7178D01*
X48540Y7187D01*
X48544Y7203D01*
X48548Y7224D01*
X48557Y7249D01*
X48569Y7278D01*
X48598Y7345D01*
X48636Y7420D01*
X48686Y7499D01*
X48748Y7574D01*
X48823Y7644D01*
X48827Y7648D01*
X48831Y7653D01*
X48844Y7661D01*
X48860Y7673D01*
X48881Y7686D01*
X48906Y7698D01*
X48968Y7732D01*
X49047Y7765D01*
X49135Y7790D01*
X49235Y7811D01*
X49347Y7819D01*
X49389D01*
X49418Y7815D01*
X49455Y7811D01*
X49497Y7802D01*
X49543Y7794D01*
X49593Y7782D01*
X49647Y7765D01*
X49705Y7744D01*
X49763Y7719D01*
X49821Y7690D01*
X49880Y7653D01*
X49934Y7611D01*
X49992Y7565D01*
X50042Y7511D01*
X50046Y7507D01*
X50054Y7499D01*
X50067Y7478D01*
X50083Y7453D01*
X50104Y7420D01*
X50125Y7378D01*
X50150Y7328D01*
X50171Y7270D01*
X50196Y7207D01*
X50221Y7132D01*
X50241Y7053D01*
X50262Y6962D01*
X50279Y6862D01*
X50291Y6758D01*
X50300Y6642D01*
X50304Y6517D01*
Y6509D01*
Y6484D01*
Y6446D01*
X50300Y6400D01*
X50296Y6338D01*
X50291Y6271D01*
X50283Y6196D01*
X50271Y6113D01*
X50241Y5943D01*
X50221Y5860D01*
X50196Y5772D01*
X50167Y5689D01*
X50129Y5614D01*
X50092Y5543D01*
X50046Y5481D01*
X50042Y5477D01*
X50033Y5469D01*
X50017Y5452D01*
X50000Y5431D01*
X49971Y5410D01*
X49942Y5385D01*
X49905Y5356D01*
X49863Y5327D01*
X49817Y5298D01*
X49763Y5269D01*
X49709Y5244D01*
X49647Y5223D01*
X49584Y5202D01*
X49514Y5186D01*
X49439Y5177D01*
X49364Y5173D01*
X49335D01*
X49314Y5177D01*
X49285D01*
X49255Y5186D01*
X49181Y5198D01*
X49097Y5223D01*
X49010Y5256D01*
X48923Y5306D01*
X48877Y5335D01*
X48835Y5369D01*
X48831Y5373D01*
X48827Y5377D01*
X48815Y5390D01*
X48798Y5406D01*
X48781Y5427D01*
X48761Y5452D01*
X48735Y5485D01*
X48711Y5519D01*
X48686Y5560D01*
X48656Y5606D01*
X48632Y5656D01*
X48602Y5714D01*
X48577Y5772D01*
X48553Y5839D01*
X48532Y5914D01*
X48511Y5988D01*
X47758Y5756D01*
Y5747D01*
X47766Y5726D01*
X47775Y5697D01*
X47791Y5652D01*
X47812Y5602D01*
X47833Y5539D01*
X47862Y5473D01*
X47895Y5402D01*
X47933Y5327D01*
X47974Y5248D01*
X48024Y5169D01*
X48074Y5094D01*
X48132Y5015D01*
X48195Y4944D01*
X48261Y4878D01*
X48336Y4815D01*
X48340Y4811D01*
X48353Y4803D01*
X48378Y4786D01*
X48407Y4770D01*
X48449Y4745D01*
X48494Y4720D01*
X48548Y4691D01*
X48615Y4666D01*
X48682Y4637D01*
X48761Y4607D01*
X48844Y4583D01*
X48935Y4558D01*
X49031Y4541D01*
X49135Y4524D01*
X49243Y4516D01*
X49355Y4512D01*
X49389D01*
X49430Y4516D01*
X49484Y4520D01*
X49547Y4528D01*
X49622Y4541D01*
X49709Y4553D01*
X49801Y4578D01*
X49896Y4603D01*
X50000Y4641D01*
X50104Y4682D01*
X50208Y4732D01*
X50312Y4791D01*
X50416Y4861D01*
X50516Y4940D01*
X50612Y5032D01*
X50616Y5036D01*
X50633Y5057D01*
X50657Y5086D01*
X50687Y5127D01*
X50724Y5181D01*
X50766Y5244D01*
X50811Y5319D01*
X50857Y5406D01*
X50903Y5502D01*
X50949Y5610D01*
X50990Y5726D01*
X51028Y5855D01*
X51057Y5993D01*
X51082Y6138D01*
X51098Y6292D01*
X51103Y6459D01*
Y6525D01*
X51098Y6550D01*
X51094Y6617D01*
X51086Y6696D01*
X51078Y6791D01*
X51061Y6895D01*
X51040Y7004D01*
X51015Y7124D01*
X50982Y7245D01*
X50945Y7370D01*
X50895Y7495D01*
X50841Y7615D01*
X50774Y7732D01*
X50699Y7844D01*
X50612Y7948D01*
X50608Y7952D01*
X50587Y7973D01*
X50562Y7998D01*
X50520Y8031D01*
X50470Y8073D01*
X50412Y8118D01*
X50341Y8164D01*
X50262Y8214D01*
X50175Y8264D01*
X50075Y8314D01*
X49971Y8356D01*
X49855Y8397D01*
X49730Y8431D01*
X49597Y8460D01*
X49455Y8476D01*
X49310Y8480D01*
D02*
G37*
G36*
X45437D02*
X45403D01*
X45370Y8476D01*
X45320Y8472D01*
X45262Y8468D01*
X45191Y8460D01*
X45112Y8447D01*
X45029Y8426D01*
X44942Y8405D01*
X44850Y8376D01*
X44754Y8343D01*
X44659Y8302D01*
X44563Y8256D01*
X44467Y8197D01*
X44380Y8135D01*
X44293Y8060D01*
X44289Y8056D01*
X44280Y8048D01*
X44268Y8035D01*
X44251Y8015D01*
X44226Y7989D01*
X44201Y7960D01*
X44176Y7923D01*
X44143Y7881D01*
X44114Y7831D01*
X44080Y7782D01*
X44047Y7723D01*
X44014Y7661D01*
X43985Y7590D01*
X43951Y7519D01*
X43922Y7440D01*
X43897Y7357D01*
X44663Y7174D01*
Y7178D01*
X44667Y7187D01*
X44671Y7203D01*
X44675Y7224D01*
X44684Y7249D01*
X44696Y7278D01*
X44725Y7345D01*
X44763Y7420D01*
X44813Y7499D01*
X44875Y7574D01*
X44950Y7644D01*
X44954Y7648D01*
X44958Y7653D01*
X44971Y7661D01*
X44987Y7673D01*
X45008Y7686D01*
X45033Y7698D01*
X45096Y7732D01*
X45175Y7765D01*
X45262Y7790D01*
X45362Y7811D01*
X45474Y7819D01*
X45516D01*
X45545Y7815D01*
X45582Y7811D01*
X45624Y7802D01*
X45670Y7794D01*
X45720Y7782D01*
X45774Y7765D01*
X45832Y7744D01*
X45890Y7719D01*
X45948Y7690D01*
X46007Y7653D01*
X46061Y7611D01*
X46119Y7565D01*
X46169Y7511D01*
X46173Y7507D01*
X46181Y7499D01*
X46194Y7478D01*
X46210Y7453D01*
X46231Y7420D01*
X46252Y7378D01*
X46277Y7328D01*
X46298Y7270D01*
X46323Y7207D01*
X46348Y7132D01*
X46369Y7053D01*
X46389Y6962D01*
X46406Y6862D01*
X46418Y6758D01*
X46427Y6642D01*
X46431Y6517D01*
Y6509D01*
Y6484D01*
Y6446D01*
X46427Y6400D01*
X46423Y6338D01*
X46418Y6271D01*
X46410Y6196D01*
X46398Y6113D01*
X46369Y5943D01*
X46348Y5860D01*
X46323Y5772D01*
X46294Y5689D01*
X46256Y5614D01*
X46219Y5543D01*
X46173Y5481D01*
X46169Y5477D01*
X46161Y5469D01*
X46144Y5452D01*
X46127Y5431D01*
X46098Y5410D01*
X46069Y5385D01*
X46031Y5356D01*
X45990Y5327D01*
X45944Y5298D01*
X45890Y5269D01*
X45836Y5244D01*
X45774Y5223D01*
X45711Y5202D01*
X45641Y5186D01*
X45566Y5177D01*
X45491Y5173D01*
X45462D01*
X45441Y5177D01*
X45412D01*
X45383Y5186D01*
X45308Y5198D01*
X45224Y5223D01*
X45137Y5256D01*
X45050Y5306D01*
X45004Y5335D01*
X44962Y5369D01*
X44958Y5373D01*
X44954Y5377D01*
X44942Y5390D01*
X44925Y5406D01*
X44908Y5427D01*
X44888Y5452D01*
X44863Y5485D01*
X44838Y5519D01*
X44813Y5560D01*
X44783Y5606D01*
X44759Y5656D01*
X44730Y5714D01*
X44704Y5772D01*
X44679Y5839D01*
X44659Y5914D01*
X44638Y5988D01*
X43885Y5756D01*
Y5747D01*
X43893Y5726D01*
X43902Y5697D01*
X43918Y5652D01*
X43939Y5602D01*
X43960Y5539D01*
X43989Y5473D01*
X44022Y5402D01*
X44060Y5327D01*
X44101Y5248D01*
X44151Y5169D01*
X44201Y5094D01*
X44259Y5015D01*
X44322Y4944D01*
X44388Y4878D01*
X44463Y4815D01*
X44467Y4811D01*
X44480Y4803D01*
X44505Y4786D01*
X44534Y4770D01*
X44576Y4745D01*
X44621Y4720D01*
X44675Y4691D01*
X44742Y4666D01*
X44809Y4637D01*
X44888Y4607D01*
X44971Y4583D01*
X45062Y4558D01*
X45158Y4541D01*
X45262Y4524D01*
X45370Y4516D01*
X45482Y4512D01*
X45516D01*
X45557Y4516D01*
X45611Y4520D01*
X45674Y4528D01*
X45749Y4541D01*
X45836Y4553D01*
X45928Y4578D01*
X46023Y4603D01*
X46127Y4641D01*
X46231Y4682D01*
X46335Y4732D01*
X46439Y4791D01*
X46543Y4861D01*
X46643Y4940D01*
X46739Y5032D01*
X46743Y5036D01*
X46760Y5057D01*
X46784Y5086D01*
X46814Y5127D01*
X46851Y5181D01*
X46893Y5244D01*
X46938Y5319D01*
X46984Y5406D01*
X47030Y5502D01*
X47076Y5610D01*
X47117Y5726D01*
X47155Y5855D01*
X47184Y5993D01*
X47209Y6138D01*
X47225Y6292D01*
X47230Y6459D01*
Y6525D01*
X47225Y6550D01*
X47221Y6617D01*
X47213Y6696D01*
X47205Y6791D01*
X47188Y6895D01*
X47167Y7004D01*
X47142Y7124D01*
X47109Y7245D01*
X47071Y7370D01*
X47022Y7495D01*
X46968Y7615D01*
X46901Y7732D01*
X46826Y7844D01*
X46739Y7948D01*
X46735Y7952D01*
X46714Y7973D01*
X46689Y7998D01*
X46647Y8031D01*
X46597Y8073D01*
X46539Y8118D01*
X46468Y8164D01*
X46389Y8214D01*
X46302Y8264D01*
X46202Y8314D01*
X46098Y8356D01*
X45982Y8397D01*
X45857Y8431D01*
X45724Y8460D01*
X45582Y8476D01*
X45437Y8480D01*
D02*
G37*
G36*
X53147Y77343D02*
X52324D01*
X50784Y73503D01*
X51629D01*
X51966Y74377D01*
X53501D01*
X53821Y73503D01*
X54641D01*
X53147Y77343D01*
D02*
G37*
G36*
X50377D02*
X48883D01*
X48842Y77338D01*
X48746D01*
X48692Y77334D01*
X48575Y77326D01*
X48455Y77309D01*
X48338Y77293D01*
X48284Y77280D01*
X48234Y77268D01*
X48230D01*
X48218Y77264D01*
X48201Y77255D01*
X48176Y77247D01*
X48147Y77239D01*
X48114Y77222D01*
X48035Y77185D01*
X47943Y77139D01*
X47847Y77076D01*
X47752Y77002D01*
X47656Y76914D01*
X47652Y76910D01*
X47644Y76902D01*
X47631Y76889D01*
X47614Y76868D01*
X47598Y76844D01*
X47573Y76814D01*
X47548Y76781D01*
X47519Y76740D01*
X47490Y76698D01*
X47460Y76652D01*
X47398Y76544D01*
X47340Y76423D01*
X47290Y76290D01*
Y76286D01*
X47286Y76274D01*
X47277Y76253D01*
X47269Y76224D01*
X47261Y76190D01*
X47248Y76145D01*
X47236Y76095D01*
X47223Y76041D01*
X47215Y75978D01*
X47203Y75907D01*
X47190Y75833D01*
X47182Y75753D01*
X47174Y75666D01*
X47165Y75579D01*
X47161Y75483D01*
Y75304D01*
X47165Y75263D01*
Y75217D01*
X47169Y75163D01*
X47178Y75105D01*
X47190Y74976D01*
X47211Y74838D01*
X47240Y74701D01*
X47282Y74568D01*
Y74564D01*
X47290Y74551D01*
X47298Y74526D01*
X47307Y74497D01*
X47323Y74464D01*
X47340Y74422D01*
X47361Y74377D01*
X47386Y74327D01*
X47444Y74218D01*
X47515Y74106D01*
X47598Y73994D01*
X47693Y73890D01*
X47698Y73886D01*
X47702Y73882D01*
X47714Y73869D01*
X47731Y73857D01*
X47752Y73840D01*
X47772Y73819D01*
X47802Y73798D01*
X47835Y73778D01*
X47914Y73728D01*
X48006Y73678D01*
X48114Y73628D01*
X48234Y73582D01*
X48238D01*
X48247Y73578D01*
X48259Y73574D01*
X48280Y73570D01*
X48305Y73565D01*
X48338Y73557D01*
X48376Y73549D01*
X48417Y73545D01*
X48463Y73536D01*
X48513Y73528D01*
X48571Y73520D01*
X48634Y73515D01*
X48696Y73511D01*
X48767Y73507D01*
X48842Y73503D01*
X50377D01*
Y77343D01*
D02*
G37*
G36*
X45426Y77355D02*
X45401D01*
X45372Y77351D01*
X45335D01*
X45289Y77343D01*
X45235Y77334D01*
X45173Y77322D01*
X45106Y77305D01*
X45039Y77284D01*
X44969Y77259D01*
X44894Y77226D01*
X44823Y77189D01*
X44752Y77143D01*
X44682Y77089D01*
X44615Y77026D01*
X44553Y76956D01*
X44548Y76952D01*
X44536Y76935D01*
X44519Y76906D01*
X44494Y76864D01*
X44465Y76814D01*
X44432Y76748D01*
X44399Y76673D01*
X44365Y76581D01*
X44332Y76481D01*
X44295Y76365D01*
X44266Y76236D01*
X44236Y76095D01*
X44212Y75941D01*
X44195Y75770D01*
X44182Y75587D01*
X44178Y75392D01*
Y75317D01*
X44182Y75288D01*
Y75254D01*
Y75213D01*
X44191Y75125D01*
X44199Y75021D01*
X44212Y74909D01*
X44224Y74788D01*
X44245Y74660D01*
X44270Y74531D01*
X44303Y74397D01*
X44336Y74268D01*
X44382Y74148D01*
X44432Y74027D01*
X44490Y73919D01*
X44557Y73823D01*
X44561Y73819D01*
X44569Y73807D01*
X44590Y73786D01*
X44615Y73761D01*
X44644Y73732D01*
X44686Y73699D01*
X44732Y73665D01*
X44782Y73628D01*
X44840Y73590D01*
X44906Y73557D01*
X44977Y73524D01*
X45056Y73495D01*
X45139Y73470D01*
X45231Y73449D01*
X45326Y73436D01*
X45426Y73432D01*
X45451D01*
X45480Y73436D01*
X45518Y73441D01*
X45568Y73445D01*
X45622Y73453D01*
X45684Y73470D01*
X45751Y73486D01*
X45821Y73507D01*
X45892Y73536D01*
X45967Y73574D01*
X46042Y73611D01*
X46117Y73661D01*
X46192Y73719D01*
X46262Y73786D01*
X46329Y73861D01*
X46333Y73865D01*
X46341Y73882D01*
X46362Y73906D01*
X46383Y73944D01*
X46408Y73994D01*
X46437Y74056D01*
X46466Y74131D01*
X46499Y74214D01*
X46533Y74314D01*
X46562Y74427D01*
X46591Y74551D01*
X46616Y74693D01*
X46637Y74847D01*
X46653Y75017D01*
X46666Y75200D01*
X46670Y75400D01*
Y75475D01*
X46666Y75504D01*
Y75537D01*
Y75575D01*
X46658Y75666D01*
X46649Y75766D01*
X46637Y75878D01*
X46624Y75999D01*
X46604Y76128D01*
X46579Y76257D01*
X46549Y76386D01*
X46512Y76515D01*
X46470Y76640D01*
X46420Y76756D01*
X46362Y76864D01*
X46296Y76960D01*
X46292Y76964D01*
X46279Y76977D01*
X46262Y76997D01*
X46237Y77022D01*
X46204Y77052D01*
X46167Y77085D01*
X46121Y77122D01*
X46071Y77160D01*
X46013Y77193D01*
X45946Y77230D01*
X45875Y77264D01*
X45796Y77293D01*
X45713Y77318D01*
X45622Y77338D01*
X45526Y77351D01*
X45426Y77355D01*
D02*
G37*
%LPD*%
G36*
X53264Y75025D02*
X52211D01*
X52744Y76448D01*
X53264Y75025D01*
D02*
G37*
G36*
X49603Y74152D02*
X48912D01*
X48846Y74156D01*
X48767Y74160D01*
X48688Y74164D01*
X48617Y74173D01*
X48584Y74181D01*
X48555Y74185D01*
X48550D01*
X48546Y74189D01*
X48521Y74194D01*
X48488Y74206D01*
X48446Y74223D01*
X48397Y74248D01*
X48342Y74277D01*
X48292Y74310D01*
X48243Y74348D01*
X48238Y74352D01*
X48222Y74368D01*
X48197Y74397D01*
X48172Y74435D01*
X48139Y74489D01*
X48105Y74551D01*
X48072Y74626D01*
X48039Y74718D01*
Y74722D01*
X48035Y74730D01*
X48030Y74743D01*
X48026Y74764D01*
X48022Y74793D01*
X48014Y74822D01*
X48006Y74859D01*
X47997Y74901D01*
X47993Y74951D01*
X47985Y75005D01*
X47976Y75059D01*
X47972Y75121D01*
X47968Y75192D01*
X47964Y75263D01*
X47960Y75342D01*
Y75421D01*
Y75425D01*
Y75441D01*
Y75462D01*
Y75496D01*
X47964Y75533D01*
Y75575D01*
X47968Y75620D01*
Y75674D01*
X47980Y75783D01*
X47993Y75895D01*
X48014Y76007D01*
X48026Y76057D01*
X48039Y76103D01*
Y76107D01*
X48043Y76116D01*
X48047Y76128D01*
X48051Y76140D01*
X48072Y76186D01*
X48097Y76240D01*
X48126Y76298D01*
X48164Y76361D01*
X48209Y76419D01*
X48259Y76473D01*
X48267Y76477D01*
X48284Y76494D01*
X48318Y76519D01*
X48359Y76548D01*
X48409Y76577D01*
X48471Y76606D01*
X48542Y76635D01*
X48621Y76656D01*
X48630D01*
X48638Y76660D01*
X48654D01*
X48671Y76665D01*
X48696Y76669D01*
X48725Y76673D01*
X48763Y76677D01*
X48800D01*
X48846Y76681D01*
X48900Y76685D01*
X48958Y76689D01*
X49025D01*
X49095Y76694D01*
X49603D01*
Y74152D01*
D02*
G37*
G36*
X45472Y76740D02*
X45505Y76731D01*
X45543Y76723D01*
X45584Y76706D01*
X45622Y76685D01*
X45663Y76656D01*
X45667Y76652D01*
X45680Y76640D01*
X45701Y76619D01*
X45722Y76586D01*
X45747Y76544D01*
X45776Y76494D01*
X45801Y76428D01*
X45826Y76353D01*
Y76348D01*
X45830Y76340D01*
X45834Y76323D01*
X45838Y76298D01*
X45842Y76265D01*
X45851Y76228D01*
X45855Y76178D01*
X45863Y76124D01*
X45871Y76061D01*
X45875Y75991D01*
X45884Y75912D01*
X45888Y75824D01*
X45892Y75733D01*
X45896Y75625D01*
X45900Y75512D01*
Y75392D01*
Y75383D01*
Y75362D01*
Y75329D01*
Y75283D01*
X45896Y75225D01*
Y75163D01*
Y75096D01*
X45892Y75021D01*
X45884Y74867D01*
X45871Y74713D01*
X45863Y74639D01*
X45855Y74572D01*
X45846Y74514D01*
X45834Y74460D01*
Y74456D01*
X45830Y74447D01*
X45826Y74435D01*
X45821Y74418D01*
X45809Y74377D01*
X45788Y74327D01*
X45763Y74268D01*
X45734Y74214D01*
X45701Y74164D01*
X45663Y74127D01*
X45659Y74123D01*
X45647Y74115D01*
X45622Y74102D01*
X45593Y74085D01*
X45559Y74069D01*
X45518Y74056D01*
X45476Y74048D01*
X45426Y74044D01*
X45406D01*
X45380Y74048D01*
X45347Y74056D01*
X45310Y74065D01*
X45268Y74077D01*
X45231Y74098D01*
X45189Y74127D01*
X45185Y74131D01*
X45173Y74144D01*
X45152Y74164D01*
X45131Y74198D01*
X45102Y74239D01*
X45077Y74289D01*
X45052Y74356D01*
X45027Y74431D01*
Y74435D01*
X45023Y74443D01*
X45019Y74460D01*
X45014Y74485D01*
X45010Y74518D01*
X45002Y74555D01*
X44994Y74601D01*
X44985Y74655D01*
X44981Y74718D01*
X44973Y74788D01*
X44965Y74867D01*
X44960Y74955D01*
X44956Y75050D01*
X44952Y75155D01*
X44948Y75271D01*
Y75392D01*
Y75400D01*
Y75421D01*
Y75454D01*
Y75500D01*
Y75554D01*
X44952Y75620D01*
Y75687D01*
X44956Y75762D01*
X44965Y75916D01*
X44977Y76065D01*
X44985Y76140D01*
X44994Y76207D01*
X45006Y76265D01*
X45019Y76319D01*
Y76323D01*
X45023Y76332D01*
X45027Y76344D01*
X45031Y76361D01*
X45044Y76402D01*
X45064Y76457D01*
X45089Y76515D01*
X45118Y76569D01*
X45152Y76619D01*
X45189Y76656D01*
X45193Y76660D01*
X45206Y76669D01*
X45231Y76685D01*
X45256Y76702D01*
X45293Y76714D01*
X45335Y76731D01*
X45376Y76740D01*
X45426Y76744D01*
X45447D01*
X45472Y76740D01*
D02*
G37*
%LPC*%
G36*
X45081Y67477D02*
X44482D01*
Y63625D01*
X45218D01*
Y66391D01*
X45222Y66387D01*
X45235Y66375D01*
X45260Y66354D01*
X45289Y66329D01*
X45326Y66300D01*
X45376Y66263D01*
X45426Y66221D01*
X45489Y66179D01*
X45555Y66134D01*
X45626Y66088D01*
X45705Y66042D01*
X45788Y65996D01*
X45875Y65951D01*
X45971Y65909D01*
X46067Y65872D01*
X46167Y65834D01*
Y66504D01*
X46163D01*
X46154Y66508D01*
X46138Y66512D01*
X46117Y66521D01*
X46088Y66533D01*
X46059Y66545D01*
X46021Y66562D01*
X45979Y66583D01*
X45888Y66629D01*
X45784Y66691D01*
X45667Y66766D01*
X45543Y66857D01*
X45539Y66862D01*
X45526Y66870D01*
X45509Y66882D01*
X45489Y66903D01*
X45459Y66928D01*
X45430Y66961D01*
X45397Y66995D01*
X45360Y67036D01*
X45281Y67128D01*
X45206Y67232D01*
X45135Y67348D01*
X45106Y67411D01*
X45081Y67477D01*
D02*
G37*
G36*
X52843Y67465D02*
X52020D01*
X50481Y63625D01*
X51325D01*
X51662Y64499D01*
X53197D01*
X53517Y63625D01*
X54337D01*
X52843Y67465D01*
D02*
G37*
G36*
X50073D02*
X48579D01*
X48538Y67461D01*
X48442D01*
X48388Y67457D01*
X48272Y67448D01*
X48151Y67431D01*
X48035Y67415D01*
X47980Y67402D01*
X47931Y67390D01*
X47926D01*
X47914Y67386D01*
X47897Y67377D01*
X47872Y67369D01*
X47843Y67361D01*
X47810Y67344D01*
X47731Y67307D01*
X47639Y67261D01*
X47544Y67198D01*
X47448Y67124D01*
X47352Y67036D01*
X47348Y67032D01*
X47340Y67024D01*
X47327Y67011D01*
X47311Y66991D01*
X47294Y66966D01*
X47269Y66936D01*
X47244Y66903D01*
X47215Y66862D01*
X47186Y66820D01*
X47157Y66774D01*
X47094Y66666D01*
X47036Y66545D01*
X46986Y66412D01*
Y66408D01*
X46982Y66396D01*
X46974Y66375D01*
X46965Y66346D01*
X46957Y66312D01*
X46945Y66267D01*
X46932Y66217D01*
X46920Y66163D01*
X46911Y66100D01*
X46899Y66030D01*
X46886Y65955D01*
X46878Y65876D01*
X46870Y65788D01*
X46861Y65701D01*
X46857Y65605D01*
Y65426D01*
X46861Y65385D01*
Y65339D01*
X46866Y65285D01*
X46874Y65227D01*
X46886Y65098D01*
X46907Y64960D01*
X46936Y64823D01*
X46978Y64690D01*
Y64686D01*
X46986Y64673D01*
X46995Y64648D01*
X47003Y64619D01*
X47019Y64586D01*
X47036Y64544D01*
X47057Y64499D01*
X47082Y64449D01*
X47140Y64341D01*
X47211Y64228D01*
X47294Y64116D01*
X47390Y64012D01*
X47394Y64008D01*
X47398Y64004D01*
X47411Y63991D01*
X47427Y63979D01*
X47448Y63962D01*
X47469Y63941D01*
X47498Y63920D01*
X47531Y63900D01*
X47610Y63850D01*
X47702Y63800D01*
X47810Y63750D01*
X47931Y63704D01*
X47935D01*
X47943Y63700D01*
X47956Y63696D01*
X47976Y63692D01*
X48001Y63687D01*
X48035Y63679D01*
X48072Y63671D01*
X48114Y63667D01*
X48159Y63658D01*
X48209Y63650D01*
X48267Y63642D01*
X48330Y63638D01*
X48392Y63633D01*
X48463Y63629D01*
X48538Y63625D01*
X50073D01*
Y67465D01*
D02*
G37*
%LPD*%
G36*
X52960Y65148D02*
X51907D01*
X52440Y66570D01*
X52960Y65148D01*
D02*
G37*
G36*
X49299Y64274D02*
X48609D01*
X48542Y64278D01*
X48463Y64282D01*
X48384Y64287D01*
X48313Y64295D01*
X48280Y64303D01*
X48251Y64307D01*
X48247D01*
X48243Y64311D01*
X48218Y64316D01*
X48184Y64328D01*
X48143Y64345D01*
X48093Y64370D01*
X48039Y64399D01*
X47989Y64432D01*
X47939Y64470D01*
X47935Y64474D01*
X47918Y64490D01*
X47893Y64520D01*
X47868Y64557D01*
X47835Y64611D01*
X47802Y64673D01*
X47768Y64748D01*
X47735Y64840D01*
Y64844D01*
X47731Y64852D01*
X47727Y64865D01*
X47723Y64886D01*
X47718Y64915D01*
X47710Y64944D01*
X47702Y64981D01*
X47693Y65023D01*
X47689Y65073D01*
X47681Y65127D01*
X47673Y65181D01*
X47668Y65243D01*
X47664Y65314D01*
X47660Y65385D01*
X47656Y65464D01*
Y65543D01*
Y65547D01*
Y65564D01*
Y65584D01*
Y65618D01*
X47660Y65655D01*
Y65697D01*
X47664Y65742D01*
Y65797D01*
X47677Y65905D01*
X47689Y66017D01*
X47710Y66129D01*
X47723Y66179D01*
X47735Y66225D01*
Y66229D01*
X47739Y66238D01*
X47743Y66250D01*
X47747Y66263D01*
X47768Y66308D01*
X47793Y66362D01*
X47822Y66421D01*
X47860Y66483D01*
X47906Y66541D01*
X47956Y66595D01*
X47964Y66600D01*
X47980Y66616D01*
X48014Y66641D01*
X48055Y66670D01*
X48105Y66699D01*
X48168Y66729D01*
X48238Y66758D01*
X48318Y66778D01*
X48326D01*
X48334Y66782D01*
X48351D01*
X48367Y66787D01*
X48392Y66791D01*
X48421Y66795D01*
X48459Y66799D01*
X48496D01*
X48542Y66803D01*
X48596Y66808D01*
X48654Y66812D01*
X48721D01*
X48792Y66816D01*
X49299D01*
Y64274D01*
D02*
G37*
%LPC*%
G36*
X47155Y28101D02*
X46406D01*
X44825Y25522D01*
Y28101D01*
X44110D01*
Y24261D01*
X44883D01*
X46439Y26782D01*
Y24261D01*
X47155D01*
Y28101D01*
D02*
G37*
G36*
X54709D02*
X53873D01*
X52900Y25260D01*
X51960Y28101D01*
X51136D01*
X52509Y24261D01*
X53341D01*
X54709Y28101D01*
D02*
G37*
G36*
X50741D02*
X47895D01*
Y27452D01*
X49967D01*
Y26603D01*
X48041D01*
Y25954D01*
X49967D01*
Y24910D01*
X47820D01*
Y24261D01*
X50741D01*
Y28101D01*
D02*
G37*
G36*
X53958Y38108D02*
X53185D01*
Y34268D01*
X53958D01*
Y38108D01*
D02*
G37*
G36*
X52444D02*
X50714D01*
X50664Y38104D01*
X50605D01*
X50539Y38100D01*
X50472Y38095D01*
X50323Y38083D01*
X50177Y38062D01*
X50106Y38054D01*
X50036Y38037D01*
X49973Y38020D01*
X49919Y38004D01*
X49915D01*
X49907Y38000D01*
X49894Y37991D01*
X49873Y37983D01*
X49848Y37971D01*
X49823Y37958D01*
X49757Y37921D01*
X49686Y37867D01*
X49615Y37804D01*
X49540Y37725D01*
X49474Y37633D01*
Y37629D01*
X49466Y37621D01*
X49457Y37609D01*
X49449Y37588D01*
X49432Y37563D01*
X49420Y37534D01*
X49403Y37496D01*
X49387Y37459D01*
X49358Y37372D01*
X49328Y37268D01*
X49312Y37155D01*
X49303Y37030D01*
Y37026D01*
Y37010D01*
Y36989D01*
X49308Y36960D01*
X49312Y36922D01*
X49316Y36881D01*
X49324Y36831D01*
X49337Y36781D01*
X49366Y36664D01*
X49387Y36606D01*
X49411Y36548D01*
X49441Y36485D01*
X49474Y36427D01*
X49511Y36369D01*
X49557Y36315D01*
X49561Y36311D01*
X49570Y36302D01*
X49582Y36290D01*
X49603Y36269D01*
X49632Y36248D01*
X49665Y36223D01*
X49703Y36194D01*
X49749Y36165D01*
X49798Y36132D01*
X49852Y36103D01*
X49915Y36073D01*
X49986Y36044D01*
X50060Y36020D01*
X50139Y35994D01*
X50227Y35974D01*
X50318Y35957D01*
X50314D01*
X50306Y35949D01*
X50293Y35945D01*
X50277Y35932D01*
X50231Y35903D01*
X50173Y35861D01*
X50106Y35816D01*
X50036Y35761D01*
X49965Y35699D01*
X49902Y35637D01*
X49894Y35628D01*
X49886Y35616D01*
X49873Y35603D01*
X49857Y35583D01*
X49836Y35558D01*
X49811Y35529D01*
X49786Y35495D01*
X49757Y35454D01*
X49724Y35408D01*
X49686Y35358D01*
X49649Y35300D01*
X49607Y35237D01*
X49561Y35167D01*
X49511Y35096D01*
X49461Y35013D01*
X48991Y34268D01*
X49919D01*
X50481Y35104D01*
X50485Y35108D01*
X50493Y35125D01*
X50510Y35146D01*
X50531Y35175D01*
X50551Y35212D01*
X50581Y35250D01*
X50643Y35341D01*
X50714Y35437D01*
X50780Y35529D01*
X50814Y35570D01*
X50843Y35608D01*
X50867Y35641D01*
X50893Y35666D01*
X50897Y35670D01*
X50909Y35687D01*
X50934Y35703D01*
X50963Y35728D01*
X50997Y35757D01*
X51038Y35782D01*
X51080Y35807D01*
X51126Y35824D01*
X51130Y35828D01*
X51150Y35832D01*
X51179Y35841D01*
X51221Y35849D01*
X51275Y35857D01*
X51342Y35861D01*
X51421Y35870D01*
X51670D01*
Y34268D01*
X52444D01*
Y38108D01*
D02*
G37*
G36*
X46861Y38170D02*
X46824D01*
X46778Y38166D01*
X46720Y38162D01*
X46649Y38153D01*
X46566Y38141D01*
X46475Y38124D01*
X46371Y38104D01*
X46267Y38079D01*
X46158Y38041D01*
X46046Y38000D01*
X45930Y37950D01*
X45821Y37887D01*
X45709Y37821D01*
X45605Y37738D01*
X45509Y37646D01*
X45505Y37642D01*
X45489Y37621D01*
X45464Y37592D01*
X45430Y37550D01*
X45393Y37496D01*
X45351Y37430D01*
X45306Y37355D01*
X45256Y37268D01*
X45210Y37168D01*
X45164Y37060D01*
X45123Y36939D01*
X45085Y36810D01*
X45052Y36668D01*
X45027Y36519D01*
X45010Y36356D01*
X45006Y36186D01*
Y36182D01*
Y36165D01*
Y36136D01*
Y36103D01*
X45010Y36057D01*
X45014Y36007D01*
X45019Y35953D01*
X45023Y35890D01*
X45031Y35824D01*
X45039Y35753D01*
X45064Y35608D01*
X45102Y35458D01*
X45147Y35312D01*
Y35308D01*
X45152Y35300D01*
X45160Y35283D01*
X45168Y35262D01*
X45177Y35237D01*
X45193Y35208D01*
X45227Y35133D01*
X45276Y35050D01*
X45335Y34955D01*
X45401Y34855D01*
X45485Y34755D01*
X45480Y34751D01*
X45472Y34747D01*
X45455Y34734D01*
X45435Y34721D01*
X45406Y34705D01*
X45376Y34684D01*
X45339Y34659D01*
X45297Y34638D01*
X45206Y34584D01*
X45102Y34530D01*
X44985Y34476D01*
X44861Y34430D01*
X45147Y33877D01*
X45156Y33881D01*
X45177Y33885D01*
X45210Y33898D01*
X45256Y33915D01*
X45310Y33935D01*
X45368Y33960D01*
X45493Y34023D01*
X45497D01*
X45505Y34031D01*
X45514Y34039D01*
X45530Y34048D01*
X45547Y34056D01*
X45568Y34073D01*
X45597Y34093D01*
X45634Y34114D01*
X45676Y34143D01*
X45726Y34172D01*
X45780Y34210D01*
X45846Y34256D01*
X45921Y34306D01*
X46009Y34360D01*
X46013D01*
X46025Y34351D01*
X46046Y34343D01*
X46075Y34335D01*
X46108Y34322D01*
X46150Y34310D01*
X46200Y34293D01*
X46254Y34281D01*
X46312Y34264D01*
X46375Y34247D01*
X46445Y34235D01*
X46516Y34222D01*
X46674Y34206D01*
X46841Y34197D01*
X46878D01*
X46899Y34201D01*
X46924D01*
X46986Y34206D01*
X47061Y34214D01*
X47148Y34227D01*
X47244Y34239D01*
X47348Y34264D01*
X47456Y34289D01*
X47569Y34326D01*
X47685Y34368D01*
X47802Y34418D01*
X47914Y34476D01*
X48026Y34547D01*
X48130Y34626D01*
X48230Y34717D01*
X48234Y34721D01*
X48251Y34742D01*
X48276Y34771D01*
X48309Y34813D01*
X48347Y34867D01*
X48388Y34934D01*
X48434Y35009D01*
X48480Y35096D01*
X48526Y35196D01*
X48571Y35304D01*
X48613Y35425D01*
X48650Y35554D01*
X48684Y35695D01*
X48709Y35849D01*
X48725Y36011D01*
X48729Y36182D01*
Y36244D01*
X48725Y36273D01*
X48721Y36336D01*
X48713Y36415D01*
X48704Y36506D01*
X48688Y36610D01*
X48667Y36718D01*
X48642Y36835D01*
X48609Y36951D01*
X48567Y37076D01*
X48517Y37197D01*
X48463Y37317D01*
X48397Y37434D01*
X48318Y37542D01*
X48230Y37646D01*
X48226Y37650D01*
X48205Y37667D01*
X48176Y37696D01*
X48139Y37729D01*
X48089Y37767D01*
X48026Y37812D01*
X47951Y37858D01*
X47868Y37908D01*
X47777Y37958D01*
X47673Y38004D01*
X47560Y38050D01*
X47440Y38087D01*
X47311Y38120D01*
X47169Y38149D01*
X47019Y38166D01*
X46861Y38170D01*
D02*
G37*
%LPD*%
G36*
X51670Y36481D02*
X50963D01*
X50913Y36485D01*
X50801D01*
X50680Y36494D01*
X50568Y36502D01*
X50518Y36506D01*
X50472Y36510D01*
X50431Y36519D01*
X50402Y36527D01*
X50393Y36531D01*
X50377Y36535D01*
X50352Y36548D01*
X50323Y36564D01*
X50285Y36585D01*
X50248Y36614D01*
X50214Y36648D01*
X50181Y36689D01*
X50177Y36693D01*
X50169Y36710D01*
X50156Y36735D01*
X50139Y36768D01*
X50127Y36810D01*
X50115Y36860D01*
X50106Y36918D01*
X50102Y36980D01*
Y36985D01*
Y36989D01*
Y37014D01*
X50106Y37047D01*
X50115Y37093D01*
X50127Y37143D01*
X50148Y37193D01*
X50173Y37242D01*
X50206Y37292D01*
X50210Y37297D01*
X50227Y37313D01*
X50248Y37334D01*
X50281Y37355D01*
X50323Y37384D01*
X50372Y37405D01*
X50435Y37426D01*
X50501Y37442D01*
X50506D01*
X50522Y37446D01*
X50555D01*
X50576Y37451D01*
X50639D01*
X50680Y37455D01*
X50780D01*
X50838Y37459D01*
X51670D01*
Y36481D01*
D02*
G37*
G36*
X46949Y37505D02*
X46990Y37500D01*
X47036Y37492D01*
X47086Y37480D01*
X47144Y37467D01*
X47203Y37451D01*
X47265Y37430D01*
X47332Y37401D01*
X47394Y37367D01*
X47460Y37330D01*
X47523Y37284D01*
X47581Y37234D01*
X47639Y37176D01*
X47644Y37172D01*
X47652Y37159D01*
X47664Y37143D01*
X47685Y37113D01*
X47706Y37080D01*
X47731Y37039D01*
X47756Y36989D01*
X47785Y36931D01*
X47810Y36864D01*
X47839Y36789D01*
X47864Y36706D01*
X47885Y36619D01*
X47906Y36523D01*
X47918Y36415D01*
X47926Y36302D01*
X47931Y36182D01*
Y36173D01*
Y36153D01*
Y36119D01*
X47926Y36069D01*
X47922Y36015D01*
X47914Y35953D01*
X47906Y35878D01*
X47893Y35803D01*
X47881Y35724D01*
X47860Y35641D01*
X47835Y35558D01*
X47806Y35475D01*
X47772Y35391D01*
X47735Y35312D01*
X47689Y35241D01*
X47639Y35175D01*
X47635Y35171D01*
X47627Y35162D01*
X47610Y35146D01*
X47585Y35125D01*
X47556Y35096D01*
X47523Y35071D01*
X47481Y35038D01*
X47436Y35009D01*
X47381Y34980D01*
X47327Y34946D01*
X47265Y34921D01*
X47198Y34896D01*
X47128Y34871D01*
X47053Y34855D01*
X46974Y34846D01*
X46891Y34842D01*
X46861D01*
X46828Y34846D01*
X46787Y34850D01*
X46741Y34855D01*
X46687Y34867D01*
X46633Y34880D01*
X46574Y34896D01*
X46579D01*
X46587Y34905D01*
X46599Y34913D01*
X46616Y34921D01*
X46637Y34934D01*
X46662Y34950D01*
X46724Y34984D01*
X46795Y35021D01*
X46878Y35063D01*
X46961Y35104D01*
X47053Y35138D01*
X46837Y35587D01*
X46832D01*
X46820Y35583D01*
X46799Y35574D01*
X46770Y35562D01*
X46737Y35549D01*
X46695Y35533D01*
X46653Y35512D01*
X46604Y35487D01*
X46491Y35433D01*
X46366Y35362D01*
X46237Y35283D01*
X46108Y35188D01*
X46100Y35196D01*
X46084Y35221D01*
X46059Y35254D01*
X46025Y35308D01*
X45988Y35366D01*
X45950Y35441D01*
X45913Y35520D01*
X45884Y35612D01*
Y35616D01*
X45880Y35624D01*
X45875Y35637D01*
X45871Y35658D01*
X45867Y35678D01*
X45859Y35708D01*
X45851Y35741D01*
X45842Y35778D01*
X45830Y35861D01*
X45817Y35961D01*
X45809Y36069D01*
X45805Y36186D01*
Y36194D01*
Y36215D01*
Y36248D01*
X45809Y36294D01*
X45813Y36348D01*
X45821Y36415D01*
X45830Y36481D01*
X45842Y36556D01*
X45859Y36635D01*
X45875Y36718D01*
X45900Y36801D01*
X45930Y36885D01*
X45963Y36964D01*
X46005Y37039D01*
X46046Y37109D01*
X46100Y37176D01*
X46104Y37180D01*
X46113Y37188D01*
X46129Y37205D01*
X46154Y37230D01*
X46183Y37255D01*
X46217Y37280D01*
X46258Y37313D01*
X46308Y37342D01*
X46358Y37372D01*
X46416Y37405D01*
X46483Y37430D01*
X46549Y37459D01*
X46624Y37480D01*
X46699Y37496D01*
X46782Y37505D01*
X46870Y37509D01*
X46916D01*
X46949Y37505D01*
D02*
G37*
%LPC*%
G36*
X51188Y57633D02*
X49694D01*
X49653Y57629D01*
X49557D01*
X49503Y57624D01*
X49387Y57616D01*
X49266Y57599D01*
X49150Y57583D01*
X49095Y57570D01*
X49045Y57558D01*
X49041D01*
X49029Y57554D01*
X49012Y57545D01*
X48987Y57537D01*
X48958Y57529D01*
X48925Y57512D01*
X48846Y57475D01*
X48754Y57429D01*
X48659Y57366D01*
X48563Y57292D01*
X48467Y57204D01*
X48463Y57200D01*
X48455Y57192D01*
X48442Y57179D01*
X48426Y57158D01*
X48409Y57134D01*
X48384Y57104D01*
X48359Y57071D01*
X48330Y57029D01*
X48301Y56988D01*
X48272Y56942D01*
X48209Y56834D01*
X48151Y56713D01*
X48101Y56580D01*
Y56576D01*
X48097Y56564D01*
X48089Y56543D01*
X48080Y56514D01*
X48072Y56480D01*
X48059Y56435D01*
X48047Y56385D01*
X48035Y56331D01*
X48026Y56268D01*
X48014Y56198D01*
X48001Y56123D01*
X47993Y56043D01*
X47985Y55956D01*
X47976Y55869D01*
X47972Y55773D01*
Y55594D01*
X47976Y55553D01*
Y55507D01*
X47980Y55453D01*
X47989Y55395D01*
X48001Y55266D01*
X48022Y55128D01*
X48051Y54991D01*
X48093Y54858D01*
Y54854D01*
X48101Y54841D01*
X48109Y54816D01*
X48118Y54787D01*
X48134Y54754D01*
X48151Y54712D01*
X48172Y54667D01*
X48197Y54617D01*
X48255Y54509D01*
X48326Y54396D01*
X48409Y54284D01*
X48505Y54180D01*
X48509Y54176D01*
X48513Y54172D01*
X48526Y54159D01*
X48542Y54147D01*
X48563Y54130D01*
X48584Y54109D01*
X48613Y54088D01*
X48646Y54067D01*
X48725Y54018D01*
X48817Y53968D01*
X48925Y53918D01*
X49045Y53872D01*
X49050D01*
X49058Y53868D01*
X49070Y53864D01*
X49091Y53860D01*
X49116Y53855D01*
X49150Y53847D01*
X49187Y53839D01*
X49229Y53835D01*
X49274Y53826D01*
X49324Y53818D01*
X49382Y53810D01*
X49445Y53806D01*
X49507Y53801D01*
X49578Y53797D01*
X49653Y53793D01*
X51188D01*
Y57633D01*
D02*
G37*
G36*
X46213D02*
X45389D01*
X43850Y53793D01*
X44694D01*
X45031Y54667D01*
X46566D01*
X46886Y53793D01*
X47706D01*
X46213Y57633D01*
D02*
G37*
G36*
X53422Y57695D02*
X53351D01*
X53305Y57691D01*
X53243Y57687D01*
X53176Y57678D01*
X53097Y57670D01*
X53014Y57653D01*
X52931Y57637D01*
X52839Y57616D01*
X52748Y57591D01*
X52661Y57562D01*
X52573Y57525D01*
X52486Y57479D01*
X52407Y57433D01*
X52336Y57375D01*
X52332Y57371D01*
X52319Y57362D01*
X52303Y57341D01*
X52278Y57316D01*
X52249Y57287D01*
X52219Y57246D01*
X52186Y57200D01*
X52149Y57150D01*
X52115Y57092D01*
X52082Y57029D01*
X52049Y56959D01*
X52020Y56884D01*
X51991Y56805D01*
X51970Y56717D01*
X51957Y56626D01*
X51949Y56530D01*
X52723Y56501D01*
Y56505D01*
X52727Y56514D01*
Y56530D01*
X52731Y56547D01*
X52740Y56572D01*
X52748Y56601D01*
X52769Y56663D01*
X52798Y56730D01*
X52835Y56801D01*
X52881Y56867D01*
X52939Y56921D01*
X52947Y56925D01*
X52968Y56942D01*
X53006Y56963D01*
X53060Y56988D01*
X53131Y57013D01*
X53214Y57034D01*
X53314Y57050D01*
X53430Y57054D01*
X53484D01*
X53513Y57050D01*
X53547Y57046D01*
X53626Y57038D01*
X53709Y57021D01*
X53800Y56996D01*
X53883Y56959D01*
X53963Y56913D01*
X53967Y56909D01*
X53979Y56896D01*
X54000Y56875D01*
X54021Y56851D01*
X54046Y56817D01*
X54062Y56776D01*
X54079Y56730D01*
X54083Y56676D01*
Y56672D01*
Y56655D01*
X54079Y56626D01*
X54071Y56597D01*
X54054Y56559D01*
X54037Y56518D01*
X54008Y56480D01*
X53971Y56443D01*
X53963Y56439D01*
X53954Y56430D01*
X53938Y56422D01*
X53921Y56410D01*
X53896Y56397D01*
X53863Y56380D01*
X53825Y56364D01*
X53784Y56347D01*
X53734Y56326D01*
X53676Y56306D01*
X53609Y56285D01*
X53534Y56260D01*
X53451Y56235D01*
X53359Y56210D01*
X53259Y56185D01*
X53251D01*
X53235Y56181D01*
X53205Y56173D01*
X53168Y56164D01*
X53118Y56152D01*
X53068Y56135D01*
X53006Y56118D01*
X52943Y56102D01*
X52806Y56060D01*
X52669Y56014D01*
X52602Y55989D01*
X52536Y55964D01*
X52477Y55935D01*
X52423Y55910D01*
X52419D01*
X52411Y55902D01*
X52398Y55894D01*
X52378Y55885D01*
X52328Y55852D01*
X52265Y55811D01*
X52199Y55752D01*
X52128Y55686D01*
X52057Y55607D01*
X51995Y55519D01*
Y55515D01*
X51987Y55507D01*
X51982Y55494D01*
X51970Y55474D01*
X51957Y55449D01*
X51945Y55419D01*
X51933Y55386D01*
X51916Y55349D01*
X51903Y55307D01*
X51891Y55261D01*
X51866Y55158D01*
X51849Y55037D01*
X51841Y54908D01*
Y54875D01*
X51845Y54854D01*
Y54825D01*
X51849Y54787D01*
X51858Y54750D01*
X51866Y54708D01*
X51887Y54612D01*
X51920Y54509D01*
X51966Y54400D01*
X51995Y54342D01*
X52028Y54288D01*
Y54284D01*
X52036Y54276D01*
X52049Y54259D01*
X52061Y54242D01*
X52082Y54217D01*
X52103Y54188D01*
X52161Y54126D01*
X52236Y54059D01*
X52324Y53984D01*
X52428Y53918D01*
X52548Y53860D01*
X52552D01*
X52565Y53855D01*
X52581Y53847D01*
X52606Y53839D01*
X52640Y53826D01*
X52681Y53818D01*
X52727Y53806D01*
X52777Y53793D01*
X52835Y53776D01*
X52898Y53764D01*
X52968Y53755D01*
X53043Y53743D01*
X53118Y53735D01*
X53205Y53726D01*
X53293Y53722D01*
X53418D01*
X53455Y53726D01*
X53505D01*
X53563Y53731D01*
X53634Y53739D01*
X53713Y53751D01*
X53796Y53764D01*
X53888Y53781D01*
X53979Y53806D01*
X54071Y53830D01*
X54162Y53864D01*
X54254Y53901D01*
X54341Y53947D01*
X54424Y53997D01*
X54503Y54055D01*
X54507Y54059D01*
X54520Y54072D01*
X54541Y54093D01*
X54566Y54118D01*
X54595Y54155D01*
X54632Y54197D01*
X54670Y54246D01*
X54707Y54305D01*
X54749Y54371D01*
X54790Y54442D01*
X54828Y54525D01*
X54865Y54612D01*
X54899Y54708D01*
X54928Y54808D01*
X54953Y54920D01*
X54969Y55037D01*
X54216Y55112D01*
Y55107D01*
X54212Y55095D01*
X54208Y55074D01*
X54204Y55049D01*
X54195Y55016D01*
X54183Y54983D01*
X54158Y54900D01*
X54121Y54808D01*
X54071Y54712D01*
X54013Y54625D01*
X53979Y54588D01*
X53942Y54550D01*
X53938D01*
X53934Y54542D01*
X53921Y54533D01*
X53904Y54521D01*
X53883Y54509D01*
X53854Y54496D01*
X53825Y54479D01*
X53792Y54463D01*
X53709Y54430D01*
X53613Y54404D01*
X53501Y54384D01*
X53376Y54375D01*
X53339D01*
X53314Y54379D01*
X53280D01*
X53247Y54384D01*
X53164Y54396D01*
X53072Y54413D01*
X52977Y54442D01*
X52885Y54479D01*
X52843Y54504D01*
X52806Y54533D01*
X52802D01*
X52798Y54542D01*
X52777Y54563D01*
X52744Y54596D01*
X52710Y54637D01*
X52677Y54691D01*
X52644Y54758D01*
X52623Y54829D01*
X52615Y54866D01*
Y54904D01*
Y54908D01*
Y54929D01*
X52619Y54954D01*
X52623Y54983D01*
X52636Y55020D01*
X52648Y55062D01*
X52669Y55099D01*
X52698Y55137D01*
X52702Y55141D01*
X52715Y55153D01*
X52735Y55170D01*
X52760Y55195D01*
X52802Y55220D01*
X52848Y55249D01*
X52906Y55274D01*
X52977Y55303D01*
X52985Y55307D01*
X52993D01*
X53006Y55311D01*
X53022Y55316D01*
X53047Y55324D01*
X53072Y55332D01*
X53106Y55340D01*
X53143Y55353D01*
X53189Y55366D01*
X53239Y55378D01*
X53297Y55395D01*
X53359Y55411D01*
X53430Y55428D01*
X53509Y55449D01*
X53597Y55470D01*
X53605D01*
X53626Y55478D01*
X53655Y55486D01*
X53696Y55499D01*
X53750Y55511D01*
X53809Y55532D01*
X53871Y55553D01*
X53938Y55573D01*
X54083Y55632D01*
X54229Y55694D01*
X54295Y55731D01*
X54362Y55769D01*
X54420Y55806D01*
X54470Y55848D01*
X54474Y55852D01*
X54487Y55865D01*
X54503Y55881D01*
X54524Y55906D01*
X54553Y55935D01*
X54582Y55973D01*
X54616Y56014D01*
X54645Y56064D01*
X54678Y56118D01*
X54711Y56177D01*
X54741Y56243D01*
X54770Y56310D01*
X54790Y56380D01*
X54807Y56459D01*
X54820Y56539D01*
X54824Y56622D01*
Y56626D01*
Y56634D01*
Y56651D01*
X54820Y56672D01*
Y56697D01*
X54815Y56730D01*
X54803Y56801D01*
X54782Y56884D01*
X54753Y56980D01*
X54711Y57075D01*
X54657Y57171D01*
Y57175D01*
X54649Y57183D01*
X54641Y57196D01*
X54628Y57213D01*
X54587Y57258D01*
X54537Y57316D01*
X54466Y57379D01*
X54387Y57441D01*
X54287Y57504D01*
X54179Y57558D01*
X54175D01*
X54166Y57562D01*
X54146Y57570D01*
X54125Y57579D01*
X54092Y57591D01*
X54058Y57599D01*
X54017Y57612D01*
X53967Y57629D01*
X53913Y57641D01*
X53859Y57653D01*
X53796Y57662D01*
X53730Y57674D01*
X53655Y57683D01*
X53584Y57691D01*
X53422Y57695D01*
D02*
G37*
%LPD*%
G36*
X50414Y54442D02*
X49724D01*
X49657Y54446D01*
X49578Y54450D01*
X49499Y54454D01*
X49428Y54463D01*
X49395Y54471D01*
X49366Y54475D01*
X49362D01*
X49358Y54479D01*
X49332Y54483D01*
X49299Y54496D01*
X49258Y54513D01*
X49208Y54538D01*
X49154Y54567D01*
X49104Y54600D01*
X49054Y54637D01*
X49050Y54642D01*
X49033Y54658D01*
X49008Y54687D01*
X48983Y54725D01*
X48950Y54779D01*
X48917Y54841D01*
X48883Y54916D01*
X48850Y55008D01*
Y55012D01*
X48846Y55020D01*
X48842Y55033D01*
X48838Y55054D01*
X48833Y55083D01*
X48825Y55112D01*
X48817Y55149D01*
X48808Y55191D01*
X48804Y55241D01*
X48796Y55295D01*
X48788Y55349D01*
X48783Y55411D01*
X48779Y55482D01*
X48775Y55553D01*
X48771Y55632D01*
Y55711D01*
Y55715D01*
Y55731D01*
Y55752D01*
Y55786D01*
X48775Y55823D01*
Y55865D01*
X48779Y55910D01*
Y55964D01*
X48792Y56073D01*
X48804Y56185D01*
X48825Y56297D01*
X48838Y56347D01*
X48850Y56393D01*
Y56397D01*
X48854Y56406D01*
X48858Y56418D01*
X48862Y56430D01*
X48883Y56476D01*
X48908Y56530D01*
X48937Y56589D01*
X48975Y56651D01*
X49020Y56709D01*
X49070Y56763D01*
X49079Y56767D01*
X49095Y56784D01*
X49129Y56809D01*
X49170Y56838D01*
X49220Y56867D01*
X49283Y56896D01*
X49353Y56925D01*
X49432Y56946D01*
X49441D01*
X49449Y56950D01*
X49466D01*
X49482Y56955D01*
X49507Y56959D01*
X49536Y56963D01*
X49574Y56967D01*
X49611D01*
X49657Y56971D01*
X49711Y56975D01*
X49769Y56980D01*
X49836D01*
X49907Y56984D01*
X50414D01*
Y54442D01*
D02*
G37*
G36*
X46329Y55316D02*
X45276D01*
X45809Y56738D01*
X46329Y55316D01*
D02*
G37*
%LPC*%
G36*
X49160Y47853D02*
X49127D01*
X49093Y47848D01*
X49043Y47844D01*
X48985Y47840D01*
X48914Y47832D01*
X48835Y47819D01*
X48752Y47798D01*
X48665Y47778D01*
X48573Y47749D01*
X48478Y47715D01*
X48382Y47674D01*
X48286Y47628D01*
X48191Y47570D01*
X48103Y47507D01*
X48016Y47432D01*
X48012Y47428D01*
X48003Y47420D01*
X47991Y47407D01*
X47974Y47387D01*
X47949Y47362D01*
X47924Y47333D01*
X47899Y47295D01*
X47866Y47254D01*
X47837Y47204D01*
X47804Y47154D01*
X47770Y47095D01*
X47737Y47033D01*
X47708Y46962D01*
X47675Y46892D01*
X47646Y46812D01*
X47621Y46729D01*
X48386Y46546D01*
Y46551D01*
X48390Y46559D01*
X48394Y46575D01*
X48399Y46596D01*
X48407Y46621D01*
X48419Y46650D01*
X48449Y46717D01*
X48486Y46792D01*
X48536Y46871D01*
X48598Y46946D01*
X48673Y47016D01*
X48677Y47021D01*
X48682Y47025D01*
X48694Y47033D01*
X48711Y47045D01*
X48731Y47058D01*
X48756Y47071D01*
X48819Y47104D01*
X48898Y47137D01*
X48985Y47162D01*
X49085Y47183D01*
X49197Y47191D01*
X49239D01*
X49268Y47187D01*
X49305Y47183D01*
X49347Y47175D01*
X49393Y47166D01*
X49443Y47154D01*
X49497Y47137D01*
X49555Y47116D01*
X49613Y47091D01*
X49672Y47062D01*
X49730Y47025D01*
X49784Y46983D01*
X49842Y46937D01*
X49892Y46883D01*
X49896Y46879D01*
X49905Y46871D01*
X49917Y46850D01*
X49934Y46825D01*
X49954Y46792D01*
X49975Y46750D01*
X50000Y46700D01*
X50021Y46642D01*
X50046Y46580D01*
X50071Y46505D01*
X50092Y46426D01*
X50112Y46334D01*
X50129Y46234D01*
X50142Y46130D01*
X50150Y46014D01*
X50154Y45889D01*
Y45881D01*
Y45856D01*
Y45818D01*
X50150Y45772D01*
X50146Y45710D01*
X50142Y45644D01*
X50133Y45569D01*
X50121Y45485D01*
X50092Y45315D01*
X50071Y45232D01*
X50046Y45144D01*
X50017Y45061D01*
X49979Y44986D01*
X49942Y44916D01*
X49896Y44853D01*
X49892Y44849D01*
X49884Y44841D01*
X49867Y44824D01*
X49850Y44803D01*
X49821Y44783D01*
X49792Y44758D01*
X49755Y44728D01*
X49713Y44699D01*
X49667Y44670D01*
X49613Y44641D01*
X49559Y44616D01*
X49497Y44595D01*
X49434Y44574D01*
X49364Y44558D01*
X49289Y44550D01*
X49214Y44545D01*
X49185D01*
X49164Y44550D01*
X49135D01*
X49106Y44558D01*
X49031Y44570D01*
X48948Y44595D01*
X48860Y44629D01*
X48773Y44679D01*
X48727Y44708D01*
X48686Y44741D01*
X48682Y44745D01*
X48677Y44749D01*
X48665Y44762D01*
X48648Y44778D01*
X48632Y44799D01*
X48611Y44824D01*
X48586Y44857D01*
X48561Y44891D01*
X48536Y44932D01*
X48507Y44978D01*
X48482Y45028D01*
X48453Y45086D01*
X48428Y45144D01*
X48403Y45211D01*
X48382Y45286D01*
X48361Y45361D01*
X47608Y45128D01*
Y45119D01*
X47616Y45099D01*
X47625Y45070D01*
X47641Y45024D01*
X47662Y44974D01*
X47683Y44911D01*
X47712Y44845D01*
X47745Y44774D01*
X47783Y44699D01*
X47824Y44620D01*
X47874Y44541D01*
X47924Y44466D01*
X47983Y44387D01*
X48045Y44317D01*
X48112Y44250D01*
X48186Y44188D01*
X48191Y44183D01*
X48203Y44175D01*
X48228Y44159D01*
X48257Y44142D01*
X48299Y44117D01*
X48344Y44092D01*
X48399Y44063D01*
X48465Y44038D01*
X48532Y44009D01*
X48611Y43980D01*
X48694Y43955D01*
X48785Y43930D01*
X48881Y43913D01*
X48985Y43896D01*
X49093Y43888D01*
X49206Y43884D01*
X49239D01*
X49281Y43888D01*
X49335Y43892D01*
X49397Y43900D01*
X49472Y43913D01*
X49559Y43925D01*
X49651Y43951D01*
X49746Y43975D01*
X49850Y44013D01*
X49954Y44054D01*
X50058Y44104D01*
X50162Y44163D01*
X50266Y44233D01*
X50366Y44312D01*
X50462Y44404D01*
X50466Y44408D01*
X50483Y44429D01*
X50508Y44458D01*
X50537Y44500D01*
X50574Y44554D01*
X50616Y44616D01*
X50662Y44691D01*
X50707Y44778D01*
X50753Y44874D01*
X50799Y44982D01*
X50841Y45099D01*
X50878Y45228D01*
X50907Y45365D01*
X50932Y45511D01*
X50949Y45664D01*
X50953Y45831D01*
Y45897D01*
X50949Y45922D01*
X50945Y45989D01*
X50936Y46068D01*
X50928Y46164D01*
X50911Y46268D01*
X50890Y46376D01*
X50865Y46496D01*
X50832Y46617D01*
X50795Y46742D01*
X50745Y46867D01*
X50691Y46987D01*
X50624Y47104D01*
X50549Y47216D01*
X50462Y47320D01*
X50458Y47324D01*
X50437Y47345D01*
X50412Y47370D01*
X50370Y47403D01*
X50321Y47445D01*
X50262Y47491D01*
X50191Y47536D01*
X50112Y47586D01*
X50025Y47636D01*
X49925Y47686D01*
X49821Y47728D01*
X49705Y47769D01*
X49580Y47803D01*
X49447Y47832D01*
X49305Y47848D01*
X49160Y47853D01*
D02*
G37*
G36*
X46922Y47757D02*
X46148D01*
Y44599D01*
X44222D01*
Y43951D01*
X46922D01*
Y47757D01*
D02*
G37*
G36*
X53049Y47853D02*
X52979D01*
X52933Y47848D01*
X52871Y47844D01*
X52804Y47836D01*
X52725Y47828D01*
X52642Y47811D01*
X52559Y47794D01*
X52467Y47774D01*
X52376Y47749D01*
X52288Y47719D01*
X52201Y47682D01*
X52113Y47636D01*
X52034Y47591D01*
X51964Y47532D01*
X51960Y47528D01*
X51947Y47520D01*
X51930Y47499D01*
X51905Y47474D01*
X51876Y47445D01*
X51847Y47403D01*
X51814Y47357D01*
X51776Y47308D01*
X51743Y47249D01*
X51710Y47187D01*
X51677Y47116D01*
X51648Y47041D01*
X51618Y46962D01*
X51598Y46875D01*
X51585Y46783D01*
X51577Y46688D01*
X52351Y46659D01*
Y46663D01*
X52355Y46671D01*
Y46688D01*
X52359Y46704D01*
X52367Y46729D01*
X52376Y46758D01*
X52396Y46821D01*
X52425Y46887D01*
X52463Y46958D01*
X52509Y47025D01*
X52567Y47079D01*
X52575Y47083D01*
X52596Y47100D01*
X52634Y47120D01*
X52688Y47145D01*
X52758Y47170D01*
X52841Y47191D01*
X52941Y47208D01*
X53058Y47212D01*
X53112D01*
X53141Y47208D01*
X53174Y47204D01*
X53253Y47195D01*
X53337Y47179D01*
X53428Y47154D01*
X53511Y47116D01*
X53590Y47071D01*
X53594Y47066D01*
X53607Y47054D01*
X53628Y47033D01*
X53649Y47008D01*
X53673Y46975D01*
X53690Y46933D01*
X53707Y46887D01*
X53711Y46833D01*
Y46829D01*
Y46812D01*
X53707Y46783D01*
X53698Y46754D01*
X53682Y46717D01*
X53665Y46675D01*
X53636Y46638D01*
X53599Y46600D01*
X53590Y46596D01*
X53582Y46588D01*
X53565Y46580D01*
X53549Y46567D01*
X53524Y46555D01*
X53490Y46538D01*
X53453Y46521D01*
X53411Y46505D01*
X53361Y46484D01*
X53303Y46463D01*
X53237Y46442D01*
X53162Y46417D01*
X53079Y46392D01*
X52987Y46367D01*
X52887Y46343D01*
X52879D01*
X52862Y46338D01*
X52833Y46330D01*
X52796Y46322D01*
X52746Y46309D01*
X52696Y46292D01*
X52634Y46276D01*
X52571Y46259D01*
X52434Y46218D01*
X52297Y46172D01*
X52230Y46147D01*
X52163Y46122D01*
X52105Y46093D01*
X52051Y46068D01*
X52047D01*
X52039Y46060D01*
X52026Y46051D01*
X52005Y46043D01*
X51955Y46010D01*
X51893Y45968D01*
X51826Y45910D01*
X51756Y45843D01*
X51685Y45764D01*
X51623Y45677D01*
Y45673D01*
X51614Y45664D01*
X51610Y45652D01*
X51598Y45631D01*
X51585Y45606D01*
X51573Y45577D01*
X51560Y45544D01*
X51543Y45506D01*
X51531Y45465D01*
X51519Y45419D01*
X51494Y45315D01*
X51477Y45194D01*
X51469Y45065D01*
Y45032D01*
X51473Y45011D01*
Y44982D01*
X51477Y44945D01*
X51485Y44907D01*
X51494Y44866D01*
X51514Y44770D01*
X51548Y44666D01*
X51593Y44558D01*
X51623Y44500D01*
X51656Y44445D01*
Y44441D01*
X51664Y44433D01*
X51677Y44416D01*
X51689Y44400D01*
X51710Y44375D01*
X51731Y44346D01*
X51789Y44283D01*
X51864Y44217D01*
X51951Y44142D01*
X52055Y44075D01*
X52176Y44017D01*
X52180D01*
X52192Y44013D01*
X52209Y44004D01*
X52234Y43996D01*
X52267Y43984D01*
X52309Y43975D01*
X52355Y43963D01*
X52405Y43951D01*
X52463Y43934D01*
X52525Y43921D01*
X52596Y43913D01*
X52671Y43900D01*
X52746Y43892D01*
X52833Y43884D01*
X52921Y43880D01*
X53045D01*
X53083Y43884D01*
X53133D01*
X53191Y43888D01*
X53262Y43896D01*
X53341Y43909D01*
X53424Y43921D01*
X53515Y43938D01*
X53607Y43963D01*
X53698Y43988D01*
X53790Y44021D01*
X53881Y44059D01*
X53969Y44104D01*
X54052Y44154D01*
X54131Y44212D01*
X54135Y44217D01*
X54148Y44229D01*
X54168Y44250D01*
X54193Y44275D01*
X54223Y44312D01*
X54260Y44354D01*
X54298Y44404D01*
X54335Y44462D01*
X54377Y44529D01*
X54418Y44599D01*
X54456Y44683D01*
X54493Y44770D01*
X54526Y44866D01*
X54555Y44965D01*
X54580Y45078D01*
X54597Y45194D01*
X53844Y45269D01*
Y45265D01*
X53840Y45252D01*
X53836Y45232D01*
X53831Y45207D01*
X53823Y45173D01*
X53811Y45140D01*
X53786Y45057D01*
X53748Y44965D01*
X53698Y44870D01*
X53640Y44783D01*
X53607Y44745D01*
X53569Y44708D01*
X53565D01*
X53561Y44699D01*
X53549Y44691D01*
X53532Y44679D01*
X53511Y44666D01*
X53482Y44653D01*
X53453Y44637D01*
X53420Y44620D01*
X53337Y44587D01*
X53241Y44562D01*
X53128Y44541D01*
X53004Y44533D01*
X52966D01*
X52941Y44537D01*
X52908D01*
X52875Y44541D01*
X52792Y44554D01*
X52700Y44570D01*
X52604Y44599D01*
X52513Y44637D01*
X52471Y44662D01*
X52434Y44691D01*
X52430D01*
X52425Y44699D01*
X52405Y44720D01*
X52371Y44753D01*
X52338Y44795D01*
X52305Y44849D01*
X52271Y44916D01*
X52251Y44986D01*
X52242Y45024D01*
Y45061D01*
Y45065D01*
Y45086D01*
X52247Y45111D01*
X52251Y45140D01*
X52263Y45178D01*
X52276Y45219D01*
X52297Y45257D01*
X52326Y45294D01*
X52330Y45298D01*
X52342Y45311D01*
X52363Y45327D01*
X52388Y45352D01*
X52430Y45377D01*
X52475Y45406D01*
X52534Y45431D01*
X52604Y45461D01*
X52613Y45465D01*
X52621D01*
X52634Y45469D01*
X52650Y45473D01*
X52675Y45481D01*
X52700Y45490D01*
X52733Y45498D01*
X52771Y45511D01*
X52816Y45523D01*
X52866Y45535D01*
X52925Y45552D01*
X52987Y45569D01*
X53058Y45585D01*
X53137Y45606D01*
X53224Y45627D01*
X53233D01*
X53253Y45635D01*
X53282Y45644D01*
X53324Y45656D01*
X53378Y45669D01*
X53436Y45689D01*
X53499Y45710D01*
X53565Y45731D01*
X53711Y45789D01*
X53856Y45852D01*
X53923Y45889D01*
X53990Y45926D01*
X54048Y45964D01*
X54098Y46005D01*
X54102Y46010D01*
X54114Y46022D01*
X54131Y46039D01*
X54152Y46064D01*
X54181Y46093D01*
X54210Y46130D01*
X54243Y46172D01*
X54273Y46222D01*
X54306Y46276D01*
X54339Y46334D01*
X54368Y46401D01*
X54397Y46467D01*
X54418Y46538D01*
X54435Y46617D01*
X54447Y46696D01*
X54451Y46779D01*
Y46783D01*
Y46792D01*
Y46808D01*
X54447Y46829D01*
Y46854D01*
X54443Y46887D01*
X54431Y46958D01*
X54410Y47041D01*
X54381Y47137D01*
X54339Y47233D01*
X54285Y47328D01*
Y47333D01*
X54277Y47341D01*
X54268Y47353D01*
X54256Y47370D01*
X54214Y47416D01*
X54164Y47474D01*
X54094Y47536D01*
X54015Y47599D01*
X53915Y47661D01*
X53807Y47715D01*
X53802D01*
X53794Y47719D01*
X53773Y47728D01*
X53752Y47736D01*
X53719Y47749D01*
X53686Y47757D01*
X53644Y47769D01*
X53594Y47786D01*
X53540Y47798D01*
X53486Y47811D01*
X53424Y47819D01*
X53357Y47832D01*
X53282Y47840D01*
X53212Y47848D01*
X53049Y47853D01*
D02*
G37*
G36*
X50793Y18263D02*
X50044D01*
X48463Y15683D01*
Y18263D01*
X47747D01*
Y14423D01*
X48521D01*
X50077Y16944D01*
Y14423D01*
X50793D01*
Y18263D01*
D02*
G37*
G36*
X53301Y18325D02*
X53131D01*
X53085Y18321D01*
X53022Y18317D01*
X52952Y18308D01*
X52877Y18300D01*
X52794Y18288D01*
X52706Y18271D01*
X52615Y18250D01*
X52523Y18229D01*
X52428Y18200D01*
X52336Y18163D01*
X52249Y18125D01*
X52165Y18079D01*
X52086Y18025D01*
X52082Y18021D01*
X52070Y18013D01*
X52049Y17996D01*
X52020Y17971D01*
X51991Y17938D01*
X51953Y17905D01*
X51912Y17859D01*
X51870Y17809D01*
X51824Y17755D01*
X51783Y17693D01*
X51737Y17622D01*
X51695Y17551D01*
X51658Y17472D01*
X51621Y17385D01*
X51591Y17293D01*
X51566Y17198D01*
X52336Y17052D01*
Y17056D01*
X52340Y17064D01*
X52344Y17081D01*
X52353Y17098D01*
X52361Y17123D01*
X52373Y17152D01*
X52407Y17214D01*
X52448Y17285D01*
X52502Y17360D01*
X52565Y17431D01*
X52644Y17497D01*
X52648D01*
X52652Y17505D01*
X52665Y17514D01*
X52685Y17522D01*
X52706Y17535D01*
X52731Y17551D01*
X52764Y17564D01*
X52798Y17580D01*
X52877Y17609D01*
X52973Y17639D01*
X53081Y17655D01*
X53201Y17663D01*
X53251D01*
X53285Y17659D01*
X53326Y17655D01*
X53376Y17647D01*
X53434Y17634D01*
X53492Y17622D01*
X53555Y17605D01*
X53622Y17584D01*
X53688Y17560D01*
X53755Y17526D01*
X53821Y17489D01*
X53888Y17447D01*
X53950Y17397D01*
X54008Y17339D01*
X54013Y17335D01*
X54021Y17322D01*
X54037Y17306D01*
X54054Y17277D01*
X54079Y17243D01*
X54104Y17202D01*
X54129Y17156D01*
X54158Y17098D01*
X54187Y17035D01*
X54212Y16965D01*
X54237Y16886D01*
X54262Y16798D01*
X54279Y16707D01*
X54295Y16607D01*
X54304Y16499D01*
X54308Y16382D01*
Y16374D01*
Y16353D01*
X54304Y16316D01*
Y16270D01*
X54299Y16212D01*
X54291Y16149D01*
X54283Y16074D01*
X54270Y15995D01*
X54254Y15916D01*
X54233Y15829D01*
X54208Y15746D01*
X54179Y15658D01*
X54146Y15575D01*
X54104Y15496D01*
X54058Y15421D01*
X54004Y15355D01*
X54000Y15351D01*
X53992Y15342D01*
X53971Y15322D01*
X53950Y15301D01*
X53917Y15276D01*
X53883Y15247D01*
X53838Y15217D01*
X53792Y15184D01*
X53738Y15151D01*
X53676Y15122D01*
X53613Y15093D01*
X53542Y15068D01*
X53463Y15047D01*
X53384Y15030D01*
X53301Y15018D01*
X53210Y15014D01*
X53168D01*
X53147Y15018D01*
X53118D01*
X53056Y15026D01*
X52981Y15039D01*
X52902Y15055D01*
X52814Y15076D01*
X52723Y15109D01*
X52719D01*
X52710Y15113D01*
X52698Y15118D01*
X52681Y15126D01*
X52636Y15147D01*
X52577Y15176D01*
X52511Y15209D01*
X52440Y15247D01*
X52369Y15288D01*
X52299Y15338D01*
Y15829D01*
X53185D01*
Y16478D01*
X51516D01*
Y14943D01*
X51521Y14939D01*
X51529Y14935D01*
X51541Y14922D01*
X51562Y14906D01*
X51587Y14885D01*
X51616Y14860D01*
X51654Y14835D01*
X51695Y14806D01*
X51745Y14772D01*
X51795Y14739D01*
X51853Y14706D01*
X51920Y14672D01*
X51987Y14635D01*
X52061Y14602D01*
X52140Y14564D01*
X52224Y14531D01*
X52228D01*
X52245Y14523D01*
X52269Y14514D01*
X52303Y14502D01*
X52344Y14490D01*
X52394Y14473D01*
X52452Y14460D01*
X52515Y14444D01*
X52581Y14427D01*
X52656Y14410D01*
X52731Y14394D01*
X52814Y14381D01*
X52985Y14360D01*
X53072Y14356D01*
X53160Y14352D01*
X53218D01*
X53259Y14356D01*
X53314Y14360D01*
X53376Y14365D01*
X53443Y14373D01*
X53517Y14386D01*
X53597Y14398D01*
X53680Y14415D01*
X53767Y14435D01*
X53859Y14456D01*
X53950Y14485D01*
X54037Y14519D01*
X54125Y14556D01*
X54212Y14602D01*
X54216Y14606D01*
X54233Y14614D01*
X54254Y14627D01*
X54287Y14648D01*
X54320Y14677D01*
X54366Y14706D01*
X54412Y14743D01*
X54462Y14789D01*
X54516Y14835D01*
X54570Y14889D01*
X54628Y14951D01*
X54682Y15014D01*
X54736Y15084D01*
X54790Y15159D01*
X54836Y15238D01*
X54882Y15326D01*
X54886Y15330D01*
X54890Y15346D01*
X54903Y15371D01*
X54915Y15409D01*
X54932Y15450D01*
X54953Y15505D01*
X54974Y15563D01*
X54994Y15629D01*
X55015Y15704D01*
X55036Y15783D01*
X55053Y15866D01*
X55073Y15954D01*
X55086Y16049D01*
X55098Y16145D01*
X55102Y16245D01*
X55107Y16349D01*
Y16407D01*
X55102Y16449D01*
X55098Y16503D01*
X55094Y16565D01*
X55086Y16632D01*
X55073Y16707D01*
X55061Y16786D01*
X55044Y16873D01*
X55023Y16961D01*
X55003Y17052D01*
X54974Y17143D01*
X54940Y17235D01*
X54903Y17327D01*
X54857Y17414D01*
X54853Y17418D01*
X54844Y17435D01*
X54832Y17460D01*
X54811Y17493D01*
X54782Y17530D01*
X54753Y17576D01*
X54716Y17626D01*
X54670Y17680D01*
X54624Y17738D01*
X54566Y17797D01*
X54507Y17855D01*
X54441Y17917D01*
X54370Y17976D01*
X54291Y18030D01*
X54208Y18084D01*
X54121Y18134D01*
X54116Y18138D01*
X54104Y18142D01*
X54083Y18150D01*
X54054Y18163D01*
X54017Y18179D01*
X53975Y18196D01*
X53925Y18213D01*
X53867Y18229D01*
X53804Y18246D01*
X53734Y18263D01*
X53659Y18279D01*
X53576Y18296D01*
X53488Y18308D01*
X53397Y18317D01*
X53301Y18325D01*
D02*
G37*
G36*
X46928Y18263D02*
X45435D01*
X45393Y18258D01*
X45297D01*
X45243Y18254D01*
X45127Y18246D01*
X45006Y18229D01*
X44890Y18213D01*
X44835Y18200D01*
X44786Y18188D01*
X44782D01*
X44769Y18183D01*
X44752Y18175D01*
X44727Y18167D01*
X44698Y18159D01*
X44665Y18142D01*
X44586Y18104D01*
X44494Y18059D01*
X44399Y17996D01*
X44303Y17921D01*
X44207Y17834D01*
X44203Y17830D01*
X44195Y17822D01*
X44182Y17809D01*
X44166Y17788D01*
X44149Y17763D01*
X44124Y17734D01*
X44099Y17701D01*
X44070Y17659D01*
X44041Y17618D01*
X44012Y17572D01*
X43949Y17464D01*
X43891Y17343D01*
X43841Y17210D01*
Y17206D01*
X43837Y17194D01*
X43829Y17173D01*
X43821Y17143D01*
X43812Y17110D01*
X43800Y17064D01*
X43787Y17015D01*
X43775Y16961D01*
X43766Y16898D01*
X43754Y16827D01*
X43741Y16752D01*
X43733Y16673D01*
X43725Y16586D01*
X43716Y16499D01*
X43712Y16403D01*
Y16224D01*
X43716Y16183D01*
Y16137D01*
X43721Y16083D01*
X43729Y16025D01*
X43741Y15895D01*
X43762Y15758D01*
X43791Y15621D01*
X43833Y15488D01*
Y15484D01*
X43841Y15471D01*
X43850Y15446D01*
X43858Y15417D01*
X43875Y15384D01*
X43891Y15342D01*
X43912Y15296D01*
X43937Y15247D01*
X43995Y15138D01*
X44066Y15026D01*
X44149Y14914D01*
X44245Y14810D01*
X44249Y14806D01*
X44253Y14802D01*
X44266Y14789D01*
X44282Y14776D01*
X44303Y14760D01*
X44324Y14739D01*
X44353Y14718D01*
X44386Y14697D01*
X44465Y14648D01*
X44557Y14598D01*
X44665Y14548D01*
X44786Y14502D01*
X44790D01*
X44798Y14498D01*
X44811Y14494D01*
X44831Y14490D01*
X44856Y14485D01*
X44890Y14477D01*
X44927Y14469D01*
X44969Y14465D01*
X45014Y14456D01*
X45064Y14448D01*
X45123Y14439D01*
X45185Y14435D01*
X45247Y14431D01*
X45318Y14427D01*
X45393Y14423D01*
X46928D01*
Y18263D01*
D02*
G37*
%LPD*%
G36*
X46154Y15072D02*
X45464D01*
X45397Y15076D01*
X45318Y15080D01*
X45239Y15084D01*
X45168Y15093D01*
X45135Y15101D01*
X45106Y15105D01*
X45102D01*
X45098Y15109D01*
X45073Y15113D01*
X45039Y15126D01*
X44998Y15143D01*
X44948Y15168D01*
X44894Y15197D01*
X44844Y15230D01*
X44794Y15267D01*
X44790Y15271D01*
X44773Y15288D01*
X44748Y15317D01*
X44723Y15355D01*
X44690Y15409D01*
X44657Y15471D01*
X44623Y15546D01*
X44590Y15638D01*
Y15642D01*
X44586Y15650D01*
X44582Y15663D01*
X44578Y15683D01*
X44574Y15712D01*
X44565Y15742D01*
X44557Y15779D01*
X44548Y15821D01*
X44544Y15871D01*
X44536Y15925D01*
X44528Y15979D01*
X44524Y16041D01*
X44519Y16112D01*
X44515Y16183D01*
X44511Y16262D01*
Y16341D01*
Y16345D01*
Y16362D01*
Y16382D01*
Y16416D01*
X44515Y16453D01*
Y16495D01*
X44519Y16540D01*
Y16594D01*
X44532Y16703D01*
X44544Y16815D01*
X44565Y16927D01*
X44578Y16977D01*
X44590Y17023D01*
Y17027D01*
X44594Y17035D01*
X44598Y17048D01*
X44603Y17060D01*
X44623Y17106D01*
X44648Y17160D01*
X44677Y17218D01*
X44715Y17281D01*
X44761Y17339D01*
X44811Y17393D01*
X44819Y17397D01*
X44835Y17414D01*
X44869Y17439D01*
X44910Y17468D01*
X44960Y17497D01*
X45023Y17526D01*
X45094Y17555D01*
X45173Y17576D01*
X45181D01*
X45189Y17580D01*
X45206D01*
X45222Y17584D01*
X45247Y17589D01*
X45276Y17593D01*
X45314Y17597D01*
X45351D01*
X45397Y17601D01*
X45451Y17605D01*
X45509Y17609D01*
X45576D01*
X45647Y17614D01*
X46154D01*
Y15072D01*
D02*
G37*
D54*
X2477Y82284D02*
X7599D01*
X17205D02*
X27284D01*
X36890D02*
X40749D01*
Y2533D02*
Y82284D01*
M02*
