G04*
G04 #@! TF.GenerationSoftware,Altium Limited,Altium Designer,22.2.1 (43)*
G04*
G04 Layer_Color=2752767*
%FSLAX25Y25*%
%MOIN*%
G70*
G04*
G04 #@! TF.SameCoordinates,3029BB1D-473D-40E9-9363-344448016E8A*
G04*
G04*
G04 #@! TF.FilePolarity,Positive*
G04*
G01*
G75*
%ADD54C,0.00500*%
%ADD55C,0.00667*%
D54*
X10402Y77724D02*
Y81724D01*
X14402D01*
Y77724D01*
X10402D01*
X30087D02*
Y81724D01*
X34087D01*
Y77724D01*
X30087D01*
X10402Y67882D02*
Y71882D01*
X14402D01*
Y67882D01*
X10402D01*
X30087D02*
Y71882D01*
X34087D01*
Y67882D01*
X30087D01*
X10402Y58039D02*
Y62039D01*
X14402D01*
Y58039D01*
X10402D01*
X30087D02*
Y62039D01*
X34087D01*
Y58039D01*
X30087D01*
X10402Y48197D02*
Y52197D01*
X14402D01*
Y48197D01*
X10402D01*
X30087D02*
Y52197D01*
X34087D01*
Y48197D01*
X30087D01*
X10402Y38354D02*
Y42354D01*
X14402D01*
Y38354D01*
X10402D01*
X30087D02*
Y42354D01*
X34087D01*
Y38354D01*
X30087D01*
X10402Y28512D02*
Y32512D01*
X14402D01*
Y28512D01*
X10402D01*
X30087D02*
Y32512D01*
X34087D01*
Y28512D01*
X30087D01*
X10402Y18669D02*
Y22669D01*
X14402D01*
Y18669D01*
X10402D01*
X30087D02*
Y22669D01*
X34087D01*
Y18669D01*
X30087D01*
X10402Y8827D02*
Y12827D01*
X14402D01*
Y8827D01*
X10402D01*
X30087D02*
Y12827D01*
X34087D01*
Y8827D01*
X30087D01*
D55*
X123260Y111417D02*
G03*
X123260Y111417I-2000J0D01*
G01*
Y107480D02*
G03*
X123260Y107480I-2000J0D01*
G01*
X155543Y8661D02*
G03*
X155543Y8661I-2000J0D01*
G01*
Y11811D02*
G03*
X155543Y11811I-2000J0D01*
G01*
Y14961D02*
G03*
X155543Y14961I-2000J0D01*
G01*
X158693Y8661D02*
G03*
X158693Y8661I-2000J0D01*
G01*
Y18110D02*
G03*
X158693Y18110I-2000J0D01*
G01*
Y21260D02*
G03*
X158693Y21260I-2000J0D01*
G01*
Y14961D02*
G03*
X158693Y14961I-2000J0D01*
G01*
Y11811D02*
G03*
X158693Y11811I-2000J0D01*
G01*
X183890Y7480D02*
G03*
X183890Y7480I-2000J0D01*
G01*
Y10630D02*
G03*
X183890Y10630I-2000J0D01*
G01*
Y16929D02*
G03*
X183890Y16929I-2000J0D01*
G01*
Y20079D02*
G03*
X183890Y20079I-2000J0D01*
G01*
Y13780D02*
G03*
X183890Y13780I-2000J0D01*
G01*
Y26378D02*
G03*
X183890Y26378I-2000J0D01*
G01*
Y29528D02*
G03*
X183890Y29528I-2000J0D01*
G01*
Y23228D02*
G03*
X183890Y23228I-2000J0D01*
G01*
Y32677D02*
G03*
X183890Y32677I-2000J0D01*
G01*
Y42126D02*
G03*
X183890Y42126I-2000J0D01*
G01*
Y38976D02*
G03*
X183890Y38976I-2000J0D01*
G01*
Y35827D02*
G03*
X183890Y35827I-2000J0D01*
G01*
X142157Y32677D02*
G03*
X142157Y32677I-2000J0D01*
G01*
X73635Y68029D02*
G03*
X73635Y68029I-2000J0D01*
G01*
X56151Y59989D02*
G03*
X56151Y59989I-2000J0D01*
G01*
Y50147D02*
G03*
X56151Y50147I-2000J0D01*
G01*
X134283Y100000D02*
G03*
X134283Y100000I-2000J0D01*
G01*
X130344Y115356D02*
G03*
X130344Y115356I-2000J0D01*
G01*
X93214Y76181D02*
G03*
X93214Y76181I-2000J0D01*
G01*
X90064D02*
G03*
X90064Y76181I-2000J0D01*
G01*
X131921Y82284D02*
G03*
X131921Y82284I-2000J0D01*
G01*
X133449Y84704D02*
G03*
X133449Y84704I-2000J0D01*
G01*
X110234Y105647D02*
G03*
X110234Y105647I-2000J0D01*
G01*
X106724Y105905D02*
G03*
X106724Y105905I-2000J0D01*
G01*
X89383Y67340D02*
G03*
X89383Y67340I-2000J0D01*
G01*
X143749Y76249D02*
G03*
X143749Y76249I-2000J0D01*
G01*
X143651Y88139D02*
G03*
X143651Y88139I-2000J0D01*
G01*
Y91879D02*
G03*
X143651Y91879I-2000J0D01*
G01*
X118929Y115945D02*
G03*
X118929Y115945I-2000J0D01*
G01*
X80330Y83175D02*
G03*
X80330Y83175I-2000J0D01*
G01*
X82258Y74896D02*
G03*
X82258Y74896I-2000J0D01*
G01*
X85998D02*
G03*
X85998Y74896I-2000J0D01*
G01*
X83517Y103487D02*
G03*
X83517Y103487I-2000J0D01*
G01*
X93435Y117931D02*
G03*
X93435Y117931I-2000J0D01*
G01*
X97569D02*
G03*
X97569Y117931I-2000J0D01*
G01*
X133528Y78382D02*
G03*
X133528Y78382I-2000J0D01*
G01*
X151606Y54134D02*
G03*
X151606Y54134I-2000J0D01*
G01*
X147669Y45276D02*
G03*
X147669Y45276I-2000J0D01*
G01*
X132905Y94488D02*
G03*
X132905Y94488I-2000J0D01*
G01*
X134325Y103541D02*
G03*
X134325Y103541I-2000J0D01*
G01*
X136843Y89567D02*
G03*
X136843Y89567I-2000J0D01*
G01*
Y93504D02*
G03*
X136843Y93504I-2000J0D01*
G01*
X107068Y53133D02*
G03*
X107068Y53133I-2000J0D01*
G01*
X98455Y42518D02*
G03*
X98455Y42518I-2000J0D01*
G01*
X79903Y40534D02*
G03*
X79903Y40534I-2000J0D01*
G01*
X105937Y100000D02*
G03*
X105937Y100000I-2000J0D01*
G01*
X108299Y108661D02*
G03*
X108299Y108661I-2000J0D01*
G01*
X99638Y103543D02*
G03*
X99638Y103543I-2000J0D01*
G01*
X81528Y109843D02*
G03*
X81528Y109843I-2000J0D01*
G01*
X107118Y69181D02*
G03*
X107118Y69181I-2000J0D01*
G01*
X96363Y84055D02*
G03*
X96363Y84055I-2000J0D01*
G01*
X115976Y85039D02*
G03*
X115976Y85039I-2000J0D01*
G01*
X109283Y151143D02*
G03*
X109283Y151143I-2000J0D01*
G01*
X109283Y132283D02*
G03*
X109283Y132283I-2000J0D01*
G01*
M02*
