G04*
G04 #@! TF.GenerationSoftware,Altium Limited,Altium Designer,22.2.1 (43)*
G04*
G04 Layer_Color=8388736*
%FSLAX25Y25*%
%MOIN*%
G70*
G04*
G04 #@! TF.SameCoordinates,3029BB1D-473D-40E9-9363-344448016E8A*
G04*
G04*
G04 #@! TF.FilePolarity,Negative*
G04*
G01*
G75*
%ADD30R,0.06102X0.17126*%
%ADD31R,0.06102X0.08465*%
%ADD32R,0.04528X0.03347*%
%ADD33R,0.02756X0.02559*%
%ADD34R,0.02559X0.02756*%
%ADD35R,0.02953X0.02953*%
%ADD36R,0.05315X0.07677*%
%ADD37C,0.04528*%
%ADD38R,0.05315X0.04528*%
%ADD39R,0.04528X0.05315*%
%ADD40R,0.04213X0.02047*%
%ADD41R,0.02047X0.04213*%
%ADD42R,0.17598X0.17598*%
%ADD43R,0.02953X0.02953*%
%ADD44R,0.03740X0.02953*%
G04:AMPARAMS|DCode=45|XSize=39.37mil|YSize=15.75mil|CornerRadius=3.94mil|HoleSize=0mil|Usage=FLASHONLY|Rotation=0.000|XOffset=0mil|YOffset=0mil|HoleType=Round|Shape=RoundedRectangle|*
%AMROUNDEDRECTD45*
21,1,0.03937,0.00787,0,0,0.0*
21,1,0.03150,0.01575,0,0,0.0*
1,1,0.00787,0.01575,-0.00394*
1,1,0.00787,-0.01575,-0.00394*
1,1,0.00787,-0.01575,0.00394*
1,1,0.00787,0.01575,0.00394*
%
%ADD45ROUNDEDRECTD45*%
%ADD46C,0.07677*%
D30*
X176181Y35827D02*
D03*
X161614D02*
D03*
D31*
X162205Y10236D02*
D03*
X176378D02*
D03*
X162205Y20079D02*
D03*
X176378D02*
D03*
D32*
X155118Y32874D02*
D03*
Y29134D02*
D03*
Y25394D02*
D03*
X146457D02*
D03*
Y29134D02*
D03*
Y32874D02*
D03*
D33*
X152657Y20276D02*
D03*
X148917D02*
D03*
X80260Y77831D02*
D03*
X84000D02*
D03*
X125650Y111417D02*
D03*
X129390D02*
D03*
X125650Y107480D02*
D03*
X129390D02*
D03*
X107480Y112756D02*
D03*
X111221D02*
D03*
X99311Y128740D02*
D03*
X95571D02*
D03*
Y124803D02*
D03*
X99311D02*
D03*
Y120866D02*
D03*
X95571D02*
D03*
X91437Y128740D02*
D03*
X87697D02*
D03*
Y124803D02*
D03*
X91437D02*
D03*
Y120866D02*
D03*
X87697D02*
D03*
X75787Y112756D02*
D03*
X79528D02*
D03*
D34*
X155118Y41634D02*
D03*
Y37894D02*
D03*
X93632Y46358D02*
D03*
Y42618D02*
D03*
X71585Y65256D02*
D03*
Y61516D02*
D03*
X138878Y88189D02*
D03*
Y91929D02*
D03*
X107283Y120965D02*
D03*
Y124705D02*
D03*
X111024Y105610D02*
D03*
Y101870D02*
D03*
X103347Y124705D02*
D03*
Y120965D02*
D03*
X79724Y124705D02*
D03*
Y120965D02*
D03*
X83661D02*
D03*
Y124705D02*
D03*
D35*
X51378Y60039D02*
D03*
X47441D02*
D03*
X51378Y50197D02*
D03*
X47441D02*
D03*
X135039Y76299D02*
D03*
X138976D02*
D03*
X107283Y128927D02*
D03*
X111221D02*
D03*
Y116535D02*
D03*
X107283D02*
D03*
X79724Y128927D02*
D03*
X75787D02*
D03*
X79724Y116535D02*
D03*
X75787D02*
D03*
D36*
X77884Y46063D02*
D03*
Y61811D02*
D03*
X87333D02*
D03*
Y46063D02*
D03*
D37*
X137362Y70079D02*
D03*
X129095Y64173D02*
D03*
X120827D02*
D03*
X112559D02*
D03*
X76780Y102500D02*
D03*
Y96000D02*
D03*
Y89500D02*
D03*
D38*
X105118Y64937D02*
D03*
Y57063D02*
D03*
D39*
X90067Y83213D02*
D03*
X82193D02*
D03*
X93307Y96543D02*
D03*
X85433D02*
D03*
X93307Y103543D02*
D03*
X85433D02*
D03*
D40*
X125591Y76181D02*
D03*
Y78150D02*
D03*
Y80118D02*
D03*
Y82087D02*
D03*
Y84055D02*
D03*
Y86024D02*
D03*
Y87992D02*
D03*
Y89961D02*
D03*
Y91929D02*
D03*
Y93898D02*
D03*
X102362D02*
D03*
Y91929D02*
D03*
Y89961D02*
D03*
Y87992D02*
D03*
Y86024D02*
D03*
Y84055D02*
D03*
Y82087D02*
D03*
Y80118D02*
D03*
Y78150D02*
D03*
Y76181D02*
D03*
D41*
X122835Y96653D02*
D03*
X120866D02*
D03*
X118898D02*
D03*
X116929D02*
D03*
X114961D02*
D03*
X112992D02*
D03*
X111024D02*
D03*
X109055D02*
D03*
X107087D02*
D03*
X105118D02*
D03*
Y73425D02*
D03*
X107087D02*
D03*
X109055D02*
D03*
X111024D02*
D03*
X112992D02*
D03*
X114961D02*
D03*
X116929D02*
D03*
X118898D02*
D03*
X120866D02*
D03*
X122835D02*
D03*
D42*
X113976Y85039D02*
D03*
D43*
X111221Y124705D02*
D03*
Y120768D02*
D03*
X75787Y124705D02*
D03*
Y120768D02*
D03*
D44*
X101378Y115807D02*
D03*
Y110177D02*
D03*
X85630Y115807D02*
D03*
Y110177D02*
D03*
D45*
X79722Y136214D02*
D03*
D46*
X12402Y79724D02*
D03*
X32087D02*
D03*
X12402Y69882D02*
D03*
X32087D02*
D03*
X12402Y60039D02*
D03*
X32087D02*
D03*
X12402Y50197D02*
D03*
X32087D02*
D03*
X12402Y40354D02*
D03*
X32087D02*
D03*
X12402Y30512D02*
D03*
X32087D02*
D03*
X12402Y20669D02*
D03*
X32087D02*
D03*
X12402Y10827D02*
D03*
X32087D02*
D03*
M02*
